<svg xmlns="http://www.w3.org/2000/svg" viewBox="0 0 202 203">
<path d="M 67.0,16.8 L 66.0,16.8 L 65.0,16.8 L 64.2,16.0 L 64.2,15.0 L 65.0,14.2 L 65.2,14.0 L 65.2,13.0 L 66.0,12.2 L 66.2,12.0 L 67.0,11.2 L 67.2,11.0 L 67.2,10.0 L 67.2,9.0 L 68.0,8.2 L 68.2,8.0 L 68.2,7.0 L 69.0,6.2 L 69.2,6.0 L 70.0,5.2 L 70.2,5.0 L 71.0,4.2 L 71.2,4.0 L 71.2,3.0 L 72.0,2.2 L 73.0,2.2 L 73.8,3.0 L 74.0,3.2 L 74.8,4.0 L 74.8,5.0 L 75.0,5.2 L 75.8,6.0 L 75.8,7.0 L 75.8,8.0 L 75.8,9.0 L 75.0,9.8 L 74.8,10.0 L 74.8,11.0 L 74.0,11.8 L 73.8,12.0 L 73.0,12.8 L 72.8,13.0 L 72.0,13.8 L 71.8,14.0 L 71.0,14.8 L 70.0,14.8 L 69.8,15.0 L 69.0,15.8 L 68.0,15.8 L 67.8,16.0 L 67.0,16.8 Z" fill="#1F4D3A" opacity="0.85"/>
<path d="M 140.0,49.8 L 139.0,49.8 L 138.0,49.8 L 137.0,49.8 L 136.0,49.8 L 135.0,49.8 L 134.0,49.8 L 133.0,49.8 L 132.2,49.0 L 132.0,48.8 L 131.0,48.8 L 130.0,48.8 L 129.2,48.0 L 129.0,47.8 L 128.0,47.8 L 127.2,47.0 L 127.0,46.8 L 126.0,46.8 L 125.2,46.0 L 125.2,45.0 L 125.0,44.8 L 124.2,44.0 L 125.0,43.2 L 125.2,43.0 L 125.0,42.8 L 124.2,42.0 L 124.2,41.0 L 125.0,40.2 L 125.2,40.0 L 126.0,39.2 L 126.2,39.0 L 126.2,38.0 L 126.2,37.0 L 127.0,36.2 L 127.2,36.0 L 127.2,35.0 L 127.2,34.0 L 128.0,33.2 L 128.2,33.0 L 129.0,32.2 L 129.2,32.0 L 130.0,31.2 L 130.2,31.0 L 130.2,30.0 L 131.0,29.2 L 131.2,29.0 L 131.2,28.0 L 132.0,27.2 L 132.2,27.0 L 132.0,26.8 L 131.2,26.0 L 132.0,25.2 L 132.2,25.0 L 132.2,24.0 L 133.0,23.2 L 134.0,23.2 L 134.2,23.0 L 134.2,22.0 L 135.0,21.2 L 135.2,21.0 L 136.0,20.2 L 136.2,20.0 L 136.2,19.0 L 137.0,18.2 L 137.2,18.0 L 138.0,17.2 L 138.2,17.0 L 138.2,16.0 L 139.0,15.2 L 139.2,15.0 L 139.2,14.0 L 139.2,13.0 L 140.0,12.2 L 141.0,12.2 L 141.2,12.0 L 141.2,11.0 L 142.0,10.2 L 143.0,10.2 L 144.0,10.2 L 145.0,10.2 L 145.8,11.0 L 146.0,11.2 L 147.0,11.2 L 147.8,12.0 L 148.0,12.2 L 148.8,13.0 L 149.0,13.2 L 149.8,14.0 L 150.0,14.2 L 150.8,15.0 L 151.0,15.2 L 151.8,16.0 L 151.8,17.0 L 152.0,17.2 L 152.8,18.0 L 153.0,18.2 L 153.8,19.0 L 153.8,20.0 L 154.0,20.2 L 154.8,21.0 L 154.8,22.0 L 154.8,23.0 L 155.0,23.2 L 155.8,24.0 L 155.8,25.0 L 155.8,26.0 L 155.8,27.0 L 156.0,27.2 L 156.8,28.0 L 156.8,29.0 L 156.8,30.0 L 156.8,31.0 L 156.8,32.0 L 156.8,33.0 L 156.8,34.0 L 156.8,35.0 L 156.0,35.8 L 155.8,36.0 L 155.8,37.0 L 155.8,38.0 L 155.8,39.0 L 155.0,39.8 L 154.8,40.0 L 154.8,41.0 L 154.0,41.8 L 153.8,42.0 L 153.8,43.0 L 153.0,43.8 L 152.8,44.0 L 152.0,44.8 L 151.8,45.0 L 151.0,45.8 L 150.8,46.0 L 150.0,46.8 L 149.0,46.8 L 148.0,46.8 L 147.8,47.0 L 147.0,47.8 L 146.0,47.8 L 145.0,47.8 L 144.8,48.0 L 144.0,48.8 L 143.0,48.8 L 142.0,48.8 L 141.0,48.8 L 140.8,49.0 L 140.0,49.8 Z" fill="#1F4D3A" opacity="0.85"/>
<path d="M 25.0,79.8 L 24.0,79.8 L 23.0,79.8 L 22.0,79.8 L 21.0,79.8 L 20.0,79.8 L 19.0,79.8 L 18.0,79.8 L 17.2,79.0 L 17.2,78.0 L 17.0,77.8 L 16.0,77.8 L 15.2,77.0 L 16.0,76.2 L 16.2,76.0 L 17.0,75.2 L 17.2,75.0 L 18.0,74.2 L 18.2,74.0 L 19.0,73.2 L 19.2,73.0 L 20.0,72.2 L 20.2,72.0 L 21.0,71.2 L 21.2,71.0 L 22.0,70.2 L 22.2,70.0 L 23.0,69.2 L 23.2,69.0 L 24.0,68.2 L 24.2,68.0 L 25.0,67.2 L 25.2,67.0 L 25.2,66.0 L 26.0,65.2 L 27.0,65.2 L 27.2,65.0 L 27.2,64.0 L 28.0,63.2 L 28.2,63.0 L 28.0,62.8 L 27.2,62.0 L 28.0,61.2 L 28.2,61.0 L 28.2,60.0 L 29.0,59.2 L 29.2,59.0 L 30.0,58.2 L 30.2,58.0 L 30.2,57.0 L 31.0,56.2 L 31.2,56.0 L 31.2,55.0 L 31.2,54.0 L 32.0,53.2 L 32.2,53.0 L 32.2,52.0 L 33.0,51.2 L 33.2,51.0 L 34.0,50.2 L 34.2,50.0 L 34.2,49.0 L 35.0,48.2 L 35.2,48.0 L 35.2,47.0 L 36.0,46.2 L 36.2,46.0 L 37.0,45.2 L 37.2,45.0 L 38.0,44.2 L 39.0,44.2 L 40.0,44.2 L 40.8,45.0 L 41.0,45.2 L 41.8,46.0 L 41.8,47.0 L 42.0,47.2 L 42.8,48.0 L 42.8,49.0 L 43.0,49.2 L 43.8,50.0 L 43.8,51.0 L 44.0,51.2 L 44.8,52.0 L 44.0,52.8 L 43.8,53.0 L 43.8,54.0 L 44.0,54.2 L 44.8,55.0 L 44.8,56.0 L 44.8,57.0 L 44.0,57.8 L 43.8,58.0 L 43.8,59.0 L 43.8,60.0 L 43.8,61.0 L 43.0,61.8 L 42.8,62.0 L 42.8,63.0 L 42.8,64.0 L 42.8,65.0 L 42.0,65.8 L 41.0,65.8 L 40.8,66.0 L 40.8,67.0 L 40.0,67.8 L 39.8,68.0 L 39.8,69.0 L 39.8,70.0 L 39.0,70.8 L 38.8,71.0 L 38.0,71.8 L 37.0,71.8 L 36.8,72.0 L 36.8,73.0 L 36.0,73.8 L 35.0,73.8 L 34.8,74.0 L 34.0,74.8 L 33.8,75.0 L 33.0,75.8 L 32.0,75.8 L 31.8,76.0 L 31.0,76.8 L 30.0,76.8 L 29.8,77.0 L 29.0,77.8 L 28.8,78.0 L 28.0,78.8 L 27.0,78.8 L 26.0,78.8 L 25.8,79.0 L 25.0,79.8 Z" fill="#1F4D3A" opacity="0.85"/>
<path d="M 41.0,77.8 L 40.0,77.8 L 39.2,77.0 L 40.0,76.2 L 40.2,76.0 L 41.0,75.2 L 41.2,75.0 L 42.0,74.2 L 42.2,74.0 L 42.2,73.0 L 43.0,72.2 L 43.2,72.0 L 44.0,71.2 L 44.2,71.0 L 44.2,70.0 L 45.0,69.2 L 45.2,69.0 L 45.2,68.0 L 45.2,67.0 L 46.0,66.2 L 46.2,66.0 L 46.2,65.0 L 47.0,64.2 L 47.8,65.0 L 47.8,66.0 L 47.8,67.0 L 47.8,68.0 L 47.8,69.0 L 47.0,69.8 L 46.8,70.0 L 46.8,71.0 L 46.8,72.0 L 46.0,72.8 L 45.8,73.0 L 45.0,73.8 L 44.0,73.8 L 43.8,74.0 L 43.8,75.0 L 43.0,75.8 L 42.8,76.0 L 42.0,76.8 L 41.8,77.0 L 41.0,77.8 Z" fill="#1F4D3A" opacity="0.85"/>
<path d="M 132.0,112.8 L 131.0,112.8 L 130.2,112.0 L 131.0,111.2 L 131.2,111.0 L 132.0,110.2 L 132.2,110.0 L 133.0,109.2 L 133.2,109.0 L 134.0,108.2 L 134.2,108.0 L 134.2,107.0 L 135.0,106.2 L 135.2,106.0 L 136.0,105.2 L 136.2,105.0 L 136.2,104.0 L 137.0,103.2 L 137.2,103.0 L 138.0,102.2 L 138.2,102.0 L 138.2,101.0 L 138.0,100.8 L 137.8,101.0 L 137.0,101.8 L 136.8,102.0 L 136.0,102.8 L 135.8,103.0 L 135.0,103.8 L 134.0,103.8 L 133.8,104.0 L 133.0,104.8 L 132.8,105.0 L 132.0,105.8 L 131.0,105.8 L 130.8,106.0 L 130.0,106.8 L 129.8,107.0 L 129.0,107.8 L 128.8,108.0 L 128.0,108.8 L 127.2,108.0 L 127.0,107.8 L 126.0,107.8 L 125.0,107.8 L 124.0,107.8 L 123.8,108.0 L 123.0,108.8 L 122.0,108.8 L 121.0,108.8 L 120.0,108.8 L 119.8,109.0 L 119.0,109.8 L 118.0,109.8 L 117.2,109.0 L 117.0,108.8 L 116.0,108.8 L 115.8,109.0 L 116.0,109.2 L 116.8,110.0 L 116.0,110.8 L 115.0,110.8 L 114.2,110.0 L 114.0,109.8 L 113.2,109.0 L 114.0,108.2 L 114.2,108.0 L 114.0,107.8 L 113.2,107.0 L 114.0,106.2 L 115.0,106.2 L 115.2,106.0 L 116.0,105.2 L 116.2,105.0 L 116.2,104.0 L 116.2,103.0 L 116.2,102.0 L 117.0,101.2 L 117.2,101.0 L 118.0,100.2 L 118.2,100.0 L 118.2,99.0 L 119.0,98.2 L 119.2,98.0 L 119.2,97.0 L 120.0,96.2 L 120.2,96.0 L 120.2,95.0 L 121.0,94.2 L 121.2,94.0 L 121.2,93.0 L 122.0,92.2 L 122.2,92.0 L 122.2,91.0 L 122.2,90.0 L 123.0,89.2 L 123.2,89.0 L 124.0,88.2 L 124.2,88.0 L 125.0,87.2 L 125.2,87.0 L 125.2,86.0 L 125.2,85.0 L 126.0,84.2 L 126.2,84.0 L 126.2,83.0 L 127.0,82.2 L 127.2,82.0 L 127.2,81.0 L 128.0,80.2 L 128.2,80.0 L 129.0,79.2 L 129.2,79.0 L 130.0,78.2 L 131.0,78.2 L 131.2,78.0 L 131.2,77.0 L 131.0,76.8 L 130.2,76.0 L 131.0,75.2 L 131.2,75.0 L 132.0,74.2 L 132.2,74.0 L 133.0,73.2 L 133.8,74.0 L 134.0,74.2 L 135.0,74.2 L 135.8,75.0 L 136.0,75.2 L 136.8,76.0 L 136.8,77.0 L 137.0,77.2 L 137.8,78.0 L 138.0,78.2 L 138.8,79.0 L 138.8,80.0 L 139.0,80.2 L 139.8,81.0 L 140.0,81.2 L 140.8,82.0 L 140.8,83.0 L 140.8,84.0 L 140.8,85.0 L 141.0,85.2 L 141.8,86.0 L 141.8,87.0 L 141.8,88.0 L 141.8,89.0 L 141.8,90.0 L 141.0,90.8 L 140.8,91.0 L 140.8,92.0 L 141.0,92.2 L 141.8,93.0 L 141.0,93.8 L 140.8,94.0 L 140.8,95.0 L 140.8,96.0 L 141.0,96.2 L 142.0,96.2 L 142.8,97.0 L 142.0,97.8 L 141.8,98.0 L 141.8,99.0 L 141.8,100.0 L 141.8,101.0 L 141.0,101.8 L 140.8,102.0 L 140.8,103.0 L 140.8,104.0 L 140.8,105.0 L 140.0,105.8 L 139.8,106.0 L 139.0,106.8 L 138.8,107.0 L 138.0,107.8 L 137.8,108.0 L 137.0,108.8 L 136.8,109.0 L 136.0,109.8 L 135.0,109.8 L 134.8,110.0 L 134.0,110.8 L 133.8,111.0 L 133.0,111.8 L 132.8,112.0 L 132.0,112.8 Z" fill="#1F4D3A" opacity="0.85"/>
<path d="M 189.0,105.8 L 188.0,105.8 L 187.0,105.8 L 186.0,105.8 L 185.0,105.8 L 184.0,105.8 L 183.0,105.8 L 182.0,105.8 L 181.0,105.8 L 180.0,105.8 L 179.0,105.8 L 178.0,105.8 L 177.0,105.8 L 176.2,105.0 L 176.0,104.8 L 175.0,104.8 L 174.2,104.0 L 174.0,103.8 L 173.2,103.0 L 173.0,102.8 L 172.2,102.0 L 172.2,101.0 L 172.2,100.0 L 173.0,99.2 L 173.2,99.0 L 173.2,98.0 L 174.0,97.2 L 174.2,97.0 L 175.0,96.2 L 175.2,96.0 L 176.0,95.2 L 176.2,95.0 L 177.0,94.2 L 177.2,94.0 L 177.2,93.0 L 178.0,92.2 L 178.2,92.0 L 179.0,91.2 L 179.2,91.0 L 180.0,90.2 L 180.2,90.0 L 180.2,89.0 L 181.0,88.2 L 181.2,88.0 L 181.2,87.0 L 182.0,86.2 L 182.2,86.0 L 182.2,85.0 L 183.0,84.2 L 183.2,84.0 L 184.0,83.2 L 184.2,83.0 L 184.2,82.0 L 185.0,81.2 L 186.0,81.2 L 186.2,81.0 L 186.2,80.0 L 187.0,79.2 L 187.2,79.0 L 188.0,78.2 L 188.2,78.0 L 189.0,77.2 L 190.0,77.2 L 191.0,77.2 L 191.8,78.0 L 192.0,78.2 L 193.0,78.2 L 193.8,79.0 L 194.0,79.2 L 194.8,80.0 L 194.8,81.0 L 195.0,81.2 L 195.8,82.0 L 196.0,82.2 L 196.8,83.0 L 196.8,84.0 L 197.0,84.2 L 197.8,85.0 L 197.8,86.0 L 197.8,87.0 L 198.0,87.2 L 198.8,88.0 L 198.8,89.0 L 198.8,90.0 L 198.8,91.0 L 198.8,92.0 L 198.8,93.0 L 198.8,94.0 L 198.0,94.8 L 197.8,95.0 L 197.8,96.0 L 197.8,97.0 L 197.0,97.8 L 196.8,98.0 L 196.8,99.0 L 196.0,99.8 L 195.8,100.0 L 195.0,100.8 L 194.8,101.0 L 194.8,102.0 L 194.0,102.8 L 193.8,103.0 L 193.0,103.8 L 192.8,104.0 L 192.0,104.8 L 191.0,104.8 L 190.0,104.8 L 189.8,105.0 L 189.0,105.8 Z" fill="#1F4D3A" opacity="0.85"/>
<path d="M 81.0,137.8 L 80.0,137.8 L 79.0,137.8 L 78.0,137.8 L 77.0,137.8 L 76.0,137.8 L 75.0,137.8 L 74.0,137.8 L 73.0,137.8 L 72.0,137.8 L 71.2,137.0 L 71.0,136.8 L 70.0,136.8 L 69.0,136.8 L 68.2,136.0 L 68.0,135.8 L 67.0,135.8 L 66.2,135.0 L 66.0,134.8 L 65.2,134.0 L 65.0,133.8 L 64.2,133.0 L 65.0,132.2 L 65.2,132.0 L 66.0,131.2 L 66.2,131.0 L 66.2,130.0 L 66.2,129.0 L 66.2,128.0 L 67.0,127.2 L 67.2,127.0 L 68.0,126.2 L 68.2,126.0 L 68.2,125.0 L 69.0,124.2 L 69.2,124.0 L 70.0,123.2 L 70.2,123.0 L 70.2,122.0 L 71.0,121.2 L 71.2,121.0 L 71.2,120.0 L 72.0,119.2 L 72.2,119.0 L 72.2,118.0 L 73.0,117.2 L 73.2,117.0 L 73.2,116.0 L 74.0,115.2 L 74.2,115.0 L 75.0,114.2 L 75.2,114.0 L 75.2,113.0 L 76.0,112.2 L 76.2,112.0 L 76.2,111.0 L 76.2,110.0 L 77.0,109.2 L 78.0,109.2 L 78.2,109.0 L 78.2,108.0 L 79.0,107.2 L 80.0,107.2 L 80.2,107.0 L 80.2,106.0 L 81.0,105.2 L 81.8,106.0 L 82.0,106.2 L 82.2,106.0 L 83.0,105.2 L 84.0,105.2 L 85.0,105.2 L 85.2,105.0 L 86.0,104.2 L 86.2,104.0 L 87.0,103.2 L 88.0,103.2 L 89.0,103.2 L 89.8,104.0 L 90.0,104.2 L 90.8,105.0 L 91.0,105.2 L 91.8,106.0 L 92.0,106.2 L 92.8,107.0 L 92.8,108.0 L 93.0,108.2 L 93.8,109.0 L 93.8,110.0 L 94.0,110.2 L 94.8,111.0 L 94.8,112.0 L 95.0,112.2 L 95.8,113.0 L 95.8,114.0 L 95.8,115.0 L 95.8,116.0 L 95.8,117.0 L 95.8,118.0 L 95.8,119.0 L 95.8,120.0 L 95.8,121.0 L 95.8,122.0 L 95.8,123.0 L 95.8,124.0 L 95.8,125.0 L 95.0,125.8 L 94.8,126.0 L 94.8,127.0 L 94.8,128.0 L 94.0,128.8 L 93.8,129.0 L 93.0,129.8 L 92.8,130.0 L 92.8,131.0 L 92.0,131.8 L 91.8,132.0 L 91.0,132.8 L 90.0,132.8 L 89.8,133.0 L 89.0,133.8 L 88.8,134.0 L 88.0,134.8 L 87.0,134.8 L 86.8,135.0 L 86.0,135.8 L 85.0,135.8 L 84.8,136.0 L 84.0,136.8 L 83.0,136.8 L 82.0,136.8 L 81.8,137.0 L 81.0,137.8 Z" fill="#1F4D3A" opacity="0.85"/>
<path d="M 21.0,168.8 L 20.0,168.8 L 19.0,168.8 L 18.0,168.8 L 17.0,168.8 L 16.0,168.8 L 15.0,168.8 L 14.0,168.8 L 13.0,168.8 L 12.0,168.8 L 11.0,168.8 L 10.2,168.0 L 10.0,167.8 L 9.0,167.8 L 8.0,167.8 L 7.2,167.0 L 7.0,166.8 L 6.0,166.8 L 5.2,166.0 L 5.0,165.8 L 4.2,165.0 L 4.0,164.8 L 3.2,164.0 L 3.2,163.0 L 4.0,162.2 L 4.2,162.0 L 5.0,161.2 L 5.2,161.0 L 5.2,160.0 L 5.2,159.0 L 6.0,158.2 L 6.2,158.0 L 7.0,157.2 L 7.2,157.0 L 7.2,156.0 L 8.0,155.2 L 8.2,155.0 L 9.0,154.2 L 9.2,154.0 L 9.2,153.0 L 9.2,152.0 L 10.0,151.2 L 10.2,151.0 L 10.2,150.0 L 11.0,149.2 L 11.2,149.0 L 12.0,148.2 L 12.2,148.0 L 13.0,147.2 L 13.2,147.0 L 13.2,146.0 L 13.2,145.0 L 14.0,144.2 L 14.2,144.0 L 14.2,143.0 L 14.2,142.0 L 15.0,141.2 L 15.2,141.0 L 16.0,140.2 L 16.2,140.0 L 17.0,139.2 L 17.2,139.0 L 17.2,138.0 L 17.2,137.0 L 18.0,136.2 L 18.2,136.0 L 19.0,135.2 L 19.2,135.0 L 20.0,134.2 L 20.2,134.0 L 21.0,133.2 L 21.2,133.0 L 22.0,132.2 L 22.2,132.0 L 23.0,131.2 L 23.2,131.0 L 23.2,130.0 L 24.0,129.2 L 25.0,129.2 L 26.0,129.2 L 26.8,130.0 L 27.0,130.2 L 28.0,130.2 L 29.0,130.2 L 29.8,131.0 L 30.0,131.2 L 30.8,132.0 L 31.0,132.2 L 31.8,133.0 L 32.0,133.2 L 32.8,134.0 L 32.8,135.0 L 33.0,135.2 L 33.8,136.0 L 34.0,136.2 L 34.8,137.0 L 34.8,138.0 L 35.0,138.2 L 35.8,139.0 L 35.8,140.0 L 35.8,141.0 L 35.8,142.0 L 36.0,142.2 L 36.8,143.0 L 36.8,144.0 L 36.8,145.0 L 37.0,145.2 L 37.8,146.0 L 37.8,147.0 L 37.8,148.0 L 37.8,149.0 L 37.8,150.0 L 37.8,151.0 L 37.8,152.0 L 37.8,153.0 L 37.0,153.8 L 36.8,154.0 L 36.8,155.0 L 36.8,156.0 L 36.8,157.0 L 36.8,158.0 L 36.0,158.8 L 35.8,159.0 L 35.8,160.0 L 35.0,160.8 L 34.8,161.0 L 34.0,161.8 L 33.8,162.0 L 33.8,163.0 L 33.0,163.8 L 32.8,164.0 L 32.0,164.8 L 31.0,164.8 L 30.0,164.8 L 29.8,165.0 L 29.0,165.8 L 28.8,166.0 L 28.0,166.8 L 27.0,166.8 L 26.0,166.8 L 25.8,167.0 L 25.0,167.8 L 24.0,167.8 L 23.0,167.8 L 22.0,167.8 L 21.8,168.0 L 21.0,168.8 Z" fill="#1F4D3A" opacity="0.85"/>
<path d="M 136.0,186.8 L 135.0,186.8 L 134.0,186.8 L 133.0,186.8 L 132.0,186.8 L 131.2,186.0 L 131.0,185.8 L 130.2,185.0 L 130.0,184.8 L 129.2,184.0 L 129.2,183.0 L 130.0,182.2 L 131.0,182.2 L 131.2,182.0 L 131.2,181.0 L 131.2,180.0 L 132.0,179.2 L 132.2,179.0 L 133.0,178.2 L 134.0,178.2 L 134.2,178.0 L 135.0,177.2 L 135.2,177.0 L 135.2,176.0 L 136.0,175.2 L 136.2,175.0 L 137.0,174.2 L 137.2,174.0 L 138.0,173.2 L 138.2,173.0 L 138.2,172.0 L 138.2,171.0 L 139.0,170.2 L 139.2,170.0 L 140.0,169.2 L 140.2,169.0 L 141.0,168.2 L 141.2,168.0 L 141.2,167.0 L 141.2,166.0 L 142.0,165.2 L 142.2,165.0 L 143.0,164.2 L 143.2,164.0 L 143.2,163.0 L 143.2,162.0 L 144.0,161.2 L 145.0,161.2 L 145.2,161.0 L 145.2,160.0 L 145.2,159.0 L 146.0,158.2 L 146.2,158.0 L 147.0,157.2 L 147.2,157.0 L 148.0,156.2 L 148.2,156.0 L 148.0,155.8 L 147.2,155.0 L 148.0,154.2 L 148.2,154.0 L 149.0,153.2 L 149.2,153.0 L 150.0,152.2 L 151.0,152.2 L 151.8,153.0 L 152.0,153.2 L 153.0,153.2 L 153.8,154.0 L 154.0,154.2 L 154.8,155.0 L 154.8,156.0 L 154.8,157.0 L 155.0,157.2 L 155.8,158.0 L 155.8,159.0 L 156.0,159.2 L 156.8,160.0 L 156.8,161.0 L 156.8,162.0 L 156.8,163.0 L 156.8,164.0 L 156.8,165.0 L 156.8,166.0 L 156.8,167.0 L 156.8,168.0 L 156.8,169.0 L 156.0,169.8 L 155.8,170.0 L 155.0,170.8 L 154.8,171.0 L 154.8,172.0 L 154.0,172.8 L 153.8,173.0 L 153.8,174.0 L 153.8,175.0 L 153.0,175.8 L 152.0,175.8 L 151.8,176.0 L 151.8,177.0 L 151.0,177.8 L 150.8,178.0 L 150.0,178.8 L 149.8,179.0 L 149.0,179.8 L 148.0,179.8 L 147.8,180.0 L 147.0,180.8 L 146.8,181.0 L 146.0,181.8 L 145.0,181.8 L 144.8,182.0 L 144.0,182.8 L 143.8,183.0 L 143.0,183.8 L 142.8,184.0 L 142.0,184.8 L 141.0,184.8 L 140.8,185.0 L 140.0,185.8 L 139.0,185.8 L 138.0,185.8 L 137.0,185.8 L 136.8,186.0 L 136.0,186.8 Z" fill="#1F4D3A" opacity="0.85"/>
<path d="M 156.0,174.8 L 155.2,174.0 L 155.0,173.8 L 154.2,173.0 L 155.0,172.2 L 156.0,172.2 L 157.0,172.2 L 157.8,173.0 L 157.0,173.8 L 156.8,174.0 L 156.0,174.8 Z" fill="#1F4D3A" opacity="0.85"/>
<path d="M 81.0,200.8 L 80.0,200.8 L 79.0,200.8 L 78.0,200.8 L 77.0,200.8 L 76.0,200.8 L 75.0,200.8 L 74.0,200.8 L 73.0,200.8 L 72.0,200.8 L 71.2,200.0 L 71.0,199.8 L 70.0,199.8 L 69.2,199.0 L 69.2,198.0 L 69.2,197.0 L 70.0,196.2 L 70.2,196.0 L 70.2,195.0 L 71.0,194.2 L 71.2,194.0 L 71.2,193.0 L 72.0,192.2 L 72.2,192.0 L 73.0,191.2 L 73.2,191.0 L 74.0,190.2 L 74.2,190.0 L 74.2,189.0 L 75.0,188.2 L 75.2,188.0 L 75.2,187.0 L 76.0,186.2 L 76.2,186.0 L 76.2,185.0 L 77.0,184.2 L 77.2,184.0 L 78.0,183.2 L 78.2,183.0 L 79.0,182.2 L 79.2,182.0 L 79.2,181.0 L 80.0,180.2 L 80.2,180.0 L 81.0,179.2 L 81.2,179.0 L 82.0,178.2 L 83.0,178.2 L 84.0,178.2 L 84.8,179.0 L 85.0,179.2 L 85.8,180.0 L 86.0,180.2 L 86.8,181.0 L 87.0,181.2 L 87.8,182.0 L 87.8,183.0 L 88.0,183.2 L 88.8,184.0 L 88.8,185.0 L 88.8,186.0 L 89.0,186.2 L 89.8,187.0 L 89.8,188.0 L 89.8,189.0 L 89.8,190.0 L 89.0,190.8 L 88.8,191.0 L 88.8,192.0 L 88.8,193.0 L 88.0,193.8 L 87.8,194.0 L 87.8,195.0 L 87.0,195.8 L 86.8,196.0 L 86.0,196.8 L 85.8,197.0 L 85.0,197.8 L 84.8,198.0 L 84.0,198.8 L 83.8,199.0 L 83.0,199.8 L 82.0,199.8 L 81.8,200.0 L 81.0,200.8 Z" fill="#1F4D3A" opacity="0.85"/>
<path d="M 67.0,16.6 L 66.0,16.6 L 65.0,16.6 L 64.4,16.0 L 64.4,15.0 L 65.0,14.4 L 65.4,14.0 L 65.4,13.0 L 66.0,12.4 L 66.4,12.0 L 67.0,11.4 L 67.4,11.0 L 67.4,10.0 L 67.4,9.0 L 68.0,8.4 L 68.4,8.0 L 68.4,7.0 L 69.0,6.4 L 69.4,6.0 L 70.0,5.4 L 70.4,5.0 L 71.0,4.4 L 71.4,4.0 L 71.4,3.0 L 72.0,2.4 L 73.0,2.4 L 73.6,3.0 L 74.0,3.4 L 74.6,4.0 L 74.6,5.0 L 75.0,5.4 L 75.6,6.0 L 75.6,7.0 L 75.6,8.0 L 75.6,9.0 L 75.0,9.6 L 74.6,10.0 L 74.6,11.0 L 74.0,11.6 L 73.6,12.0 L 73.0,12.6 L 72.6,13.0 L 72.0,13.6 L 71.6,14.0 L 71.0,14.6 L 70.0,14.6 L 69.6,15.0 L 69.0,15.6 L 68.0,15.6 L 67.6,16.0 L 67.0,16.6 Z" fill="#1F4D3A" opacity="0.85"/>
<path d="M 140.0,49.6 L 139.0,49.6 L 138.0,49.6 L 137.0,49.6 L 136.0,49.6 L 135.0,49.6 L 134.0,49.6 L 133.0,49.6 L 132.4,49.0 L 132.0,48.6 L 131.0,48.6 L 130.0,48.6 L 129.4,48.0 L 129.0,47.6 L 128.0,47.6 L 127.4,47.0 L 127.0,46.6 L 126.0,46.6 L 125.4,46.0 L 125.4,45.0 L 125.0,44.6 L 124.4,44.0 L 125.0,43.4 L 125.4,43.0 L 125.0,42.6 L 124.4,42.0 L 124.4,41.0 L 125.0,40.4 L 125.4,40.0 L 126.0,39.4 L 126.4,39.0 L 126.4,38.0 L 126.4,37.0 L 127.0,36.4 L 127.4,36.0 L 127.4,35.0 L 127.4,34.0 L 128.0,33.4 L 128.4,33.0 L 129.0,32.4 L 129.4,32.0 L 130.0,31.4 L 130.4,31.0 L 130.4,30.0 L 131.0,29.4 L 131.4,29.0 L 131.4,28.0 L 132.0,27.4 L 132.4,27.0 L 132.0,26.6 L 131.4,26.0 L 132.0,25.4 L 132.4,25.0 L 132.4,24.0 L 133.0,23.4 L 134.0,23.4 L 134.4,23.0 L 134.4,22.0 L 135.0,21.4 L 135.4,21.0 L 136.0,20.4 L 136.4,20.0 L 136.4,19.0 L 137.0,18.4 L 137.4,18.0 L 138.0,17.4 L 138.4,17.0 L 138.4,16.0 L 139.0,15.4 L 139.4,15.0 L 139.4,14.0 L 139.4,13.0 L 140.0,12.4 L 141.0,12.4 L 141.4,12.0 L 141.4,11.0 L 142.0,10.4 L 143.0,10.4 L 144.0,10.4 L 145.0,10.4 L 145.6,11.0 L 146.0,11.4 L 147.0,11.4 L 147.6,12.0 L 148.0,12.4 L 148.6,13.0 L 149.0,13.4 L 149.6,14.0 L 150.0,14.4 L 150.6,15.0 L 151.0,15.4 L 151.6,16.0 L 151.6,17.0 L 152.0,17.4 L 152.6,18.0 L 153.0,18.4 L 153.6,19.0 L 153.6,20.0 L 154.0,20.4 L 154.6,21.0 L 154.6,22.0 L 154.6,23.0 L 155.0,23.4 L 155.6,24.0 L 155.6,25.0 L 155.6,26.0 L 155.6,27.0 L 156.0,27.4 L 156.6,28.0 L 156.6,29.0 L 156.6,30.0 L 156.6,31.0 L 156.6,32.0 L 156.6,33.0 L 156.6,34.0 L 156.6,35.0 L 156.0,35.6 L 155.6,36.0 L 155.6,37.0 L 155.6,38.0 L 155.6,39.0 L 155.0,39.6 L 154.6,40.0 L 154.6,41.0 L 154.0,41.6 L 153.6,42.0 L 153.6,43.0 L 153.0,43.6 L 152.6,44.0 L 152.0,44.6 L 151.6,45.0 L 151.0,45.6 L 150.6,46.0 L 150.0,46.6 L 149.0,46.6 L 148.0,46.6 L 147.6,47.0 L 147.0,47.6 L 146.0,47.6 L 145.0,47.6 L 144.6,48.0 L 144.0,48.6 L 143.0,48.6 L 142.0,48.6 L 141.0,48.6 L 140.6,49.0 L 140.0,49.6 Z" fill="#1F4D3A" opacity="0.85"/>
<path d="M 25.0,79.6 L 24.0,79.6 L 23.0,79.6 L 22.0,79.6 L 21.0,79.6 L 20.0,79.6 L 19.0,79.6 L 18.0,79.6 L 17.4,79.0 L 17.4,78.0 L 17.0,77.6 L 16.0,77.6 L 15.4,77.0 L 16.0,76.4 L 16.4,76.0 L 17.0,75.4 L 17.4,75.0 L 18.0,74.4 L 18.4,74.0 L 19.0,73.4 L 19.4,73.0 L 20.0,72.4 L 20.4,72.0 L 21.0,71.4 L 21.4,71.0 L 22.0,70.4 L 22.4,70.0 L 23.0,69.4 L 23.4,69.0 L 24.0,68.4 L 24.4,68.0 L 25.0,67.4 L 25.4,67.0 L 25.4,66.0 L 26.0,65.4 L 27.0,65.4 L 27.4,65.0 L 27.4,64.0 L 28.0,63.4 L 28.4,63.0 L 28.0,62.6 L 27.4,62.0 L 28.0,61.4 L 28.4,61.0 L 28.4,60.0 L 29.0,59.4 L 29.4,59.0 L 30.0,58.4 L 30.4,58.0 L 30.4,57.0 L 31.0,56.4 L 31.4,56.0 L 31.4,55.0 L 31.4,54.0 L 32.0,53.4 L 32.4,53.0 L 32.4,52.0 L 33.0,51.4 L 33.4,51.0 L 34.0,50.4 L 34.4,50.0 L 34.4,49.0 L 35.0,48.4 L 35.4,48.0 L 35.4,47.0 L 36.0,46.4 L 36.4,46.0 L 37.0,45.4 L 37.4,45.0 L 38.0,44.4 L 39.0,44.4 L 40.0,44.4 L 40.6,45.0 L 41.0,45.4 L 41.6,46.0 L 41.6,47.0 L 42.0,47.4 L 42.6,48.0 L 42.6,49.0 L 43.0,49.4 L 43.6,50.0 L 43.6,51.0 L 44.0,51.4 L 44.6,52.0 L 44.0,52.6 L 43.6,53.0 L 43.6,54.0 L 44.0,54.4 L 44.6,55.0 L 44.6,56.0 L 44.6,57.0 L 44.0,57.6 L 43.6,58.0 L 43.6,59.0 L 43.6,60.0 L 43.6,61.0 L 43.0,61.6 L 42.6,62.0 L 42.6,63.0 L 42.6,64.0 L 42.6,65.0 L 42.0,65.6 L 41.0,65.6 L 40.6,66.0 L 40.6,67.0 L 40.0,67.6 L 39.6,68.0 L 39.6,69.0 L 39.6,70.0 L 39.0,70.6 L 38.6,71.0 L 38.0,71.6 L 37.0,71.6 L 36.6,72.0 L 36.6,73.0 L 36.0,73.6 L 35.0,73.6 L 34.6,74.0 L 34.0,74.6 L 33.6,75.0 L 33.0,75.6 L 32.0,75.6 L 31.6,76.0 L 31.0,76.6 L 30.0,76.6 L 29.6,77.0 L 29.0,77.6 L 28.6,78.0 L 28.0,78.6 L 27.0,78.6 L 26.0,78.6 L 25.6,79.0 L 25.0,79.6 Z" fill="#1F4D3A" opacity="0.85"/>
<path d="M 41.0,77.6 L 40.0,77.6 L 39.4,77.0 L 40.0,76.4 L 40.4,76.0 L 41.0,75.4 L 41.4,75.0 L 42.0,74.4 L 42.4,74.0 L 42.4,73.0 L 43.0,72.4 L 43.4,72.0 L 44.0,71.4 L 44.4,71.0 L 44.4,70.0 L 45.0,69.4 L 45.4,69.0 L 45.4,68.0 L 45.4,67.0 L 46.0,66.4 L 46.4,66.0 L 46.4,65.0 L 47.0,64.4 L 47.6,65.0 L 47.6,66.0 L 47.6,67.0 L 47.6,68.0 L 47.6,69.0 L 47.0,69.6 L 46.6,70.0 L 46.6,71.0 L 46.6,72.0 L 46.0,72.6 L 45.6,73.0 L 45.0,73.6 L 44.0,73.6 L 43.6,74.0 L 43.6,75.0 L 43.0,75.6 L 42.6,76.0 L 42.0,76.6 L 41.6,77.0 L 41.0,77.6 Z" fill="#1F4D3A" opacity="0.85"/>
<path d="M 132.0,112.6 L 131.0,112.6 L 130.4,112.0 L 131.0,111.4 L 131.4,111.0 L 132.0,110.4 L 132.4,110.0 L 133.0,109.4 L 133.4,109.0 L 134.0,108.4 L 134.4,108.0 L 134.4,107.0 L 135.0,106.4 L 135.4,106.0 L 136.0,105.4 L 136.4,105.0 L 136.4,104.0 L 137.0,103.4 L 137.4,103.0 L 138.0,102.4 L 138.4,102.0 L 138.4,101.0 L 138.0,100.6 L 137.6,101.0 L 137.0,101.6 L 136.6,102.0 L 136.0,102.6 L 135.6,103.0 L 135.0,103.6 L 134.0,103.6 L 133.6,104.0 L 133.0,104.6 L 132.6,105.0 L 132.0,105.6 L 131.0,105.6 L 130.6,106.0 L 130.0,106.6 L 129.6,107.0 L 129.0,107.6 L 128.6,108.0 L 128.0,108.6 L 127.4,108.0 L 127.0,107.6 L 126.0,107.6 L 125.0,107.6 L 124.0,107.6 L 123.6,108.0 L 123.0,108.6 L 122.0,108.6 L 121.0,108.6 L 120.0,108.6 L 119.6,109.0 L 119.0,109.6 L 118.0,109.6 L 117.4,109.0 L 117.0,108.6 L 116.0,108.6 L 115.6,109.0 L 116.0,109.4 L 116.6,110.0 L 116.0,110.6 L 115.0,110.6 L 114.4,110.0 L 114.0,109.6 L 113.4,109.0 L 114.0,108.4 L 114.4,108.0 L 114.0,107.6 L 113.4,107.0 L 114.0,106.4 L 115.0,106.4 L 115.4,106.0 L 116.0,105.4 L 116.4,105.0 L 116.4,104.0 L 116.4,103.0 L 116.4,102.0 L 117.0,101.4 L 117.4,101.0 L 118.0,100.4 L 118.4,100.0 L 118.4,99.0 L 119.0,98.4 L 119.4,98.0 L 119.4,97.0 L 120.0,96.4 L 120.4,96.0 L 120.4,95.0 L 121.0,94.4 L 121.4,94.0 L 121.4,93.0 L 122.0,92.4 L 122.4,92.0 L 122.4,91.0 L 122.4,90.0 L 123.0,89.4 L 123.4,89.0 L 124.0,88.4 L 124.4,88.0 L 125.0,87.4 L 125.4,87.0 L 125.4,86.0 L 125.4,85.0 L 126.0,84.4 L 126.4,84.0 L 126.4,83.0 L 127.0,82.4 L 127.4,82.0 L 127.4,81.0 L 128.0,80.4 L 128.4,80.0 L 129.0,79.4 L 129.4,79.0 L 130.0,78.4 L 131.0,78.4 L 131.4,78.0 L 131.4,77.0 L 131.0,76.6 L 130.4,76.0 L 131.0,75.4 L 131.4,75.0 L 132.0,74.4 L 132.4,74.0 L 133.0,73.4 L 133.6,74.0 L 134.0,74.4 L 135.0,74.4 L 135.6,75.0 L 136.0,75.4 L 136.6,76.0 L 136.6,77.0 L 137.0,77.4 L 137.6,78.0 L 138.0,78.4 L 138.6,79.0 L 138.6,80.0 L 139.0,80.4 L 139.6,81.0 L 140.0,81.4 L 140.6,82.0 L 140.6,83.0 L 140.6,84.0 L 140.6,85.0 L 141.0,85.4 L 141.6,86.0 L 141.6,87.0 L 141.6,88.0 L 141.6,89.0 L 141.6,90.0 L 141.0,90.6 L 140.6,91.0 L 140.6,92.0 L 141.0,92.4 L 141.6,93.0 L 141.0,93.6 L 140.6,94.0 L 140.6,95.0 L 140.6,96.0 L 141.0,96.4 L 142.0,96.4 L 142.6,97.0 L 142.0,97.6 L 141.6,98.0 L 141.6,99.0 L 141.6,100.0 L 141.6,101.0 L 141.0,101.6 L 140.6,102.0 L 140.6,103.0 L 140.6,104.0 L 140.6,105.0 L 140.0,105.6 L 139.6,106.0 L 139.0,106.6 L 138.6,107.0 L 138.0,107.6 L 137.6,108.0 L 137.0,108.6 L 136.6,109.0 L 136.0,109.6 L 135.0,109.6 L 134.6,110.0 L 134.0,110.6 L 133.6,111.0 L 133.0,111.6 L 132.6,112.0 L 132.0,112.6 Z" fill="#1F4D3A" opacity="0.85"/>
<path d="M 189.0,105.6 L 188.0,105.6 L 187.0,105.6 L 186.0,105.6 L 185.0,105.6 L 184.0,105.6 L 183.0,105.6 L 182.0,105.6 L 181.0,105.6 L 180.0,105.6 L 179.0,105.6 L 178.0,105.6 L 177.0,105.6 L 176.4,105.0 L 176.0,104.6 L 175.0,104.6 L 174.4,104.0 L 174.0,103.6 L 173.4,103.0 L 173.0,102.6 L 172.4,102.0 L 172.4,101.0 L 172.4,100.0 L 173.0,99.4 L 173.4,99.0 L 173.4,98.0 L 174.0,97.4 L 174.4,97.0 L 175.0,96.4 L 175.4,96.0 L 176.0,95.4 L 176.4,95.0 L 177.0,94.4 L 177.4,94.0 L 177.4,93.0 L 178.0,92.4 L 178.4,92.0 L 179.0,91.4 L 179.4,91.0 L 180.0,90.4 L 180.4,90.0 L 180.4,89.0 L 181.0,88.4 L 181.4,88.0 L 181.4,87.0 L 182.0,86.4 L 182.4,86.0 L 182.4,85.0 L 183.0,84.4 L 183.4,84.0 L 184.0,83.4 L 184.4,83.0 L 184.4,82.0 L 185.0,81.4 L 186.0,81.4 L 186.4,81.0 L 186.4,80.0 L 187.0,79.4 L 187.4,79.0 L 188.0,78.4 L 188.4,78.0 L 189.0,77.4 L 190.0,77.4 L 191.0,77.4 L 191.6,78.0 L 192.0,78.4 L 193.0,78.4 L 193.6,79.0 L 194.0,79.4 L 194.6,80.0 L 194.6,81.0 L 195.0,81.4 L 195.6,82.0 L 196.0,82.4 L 196.6,83.0 L 196.6,84.0 L 197.0,84.4 L 197.6,85.0 L 197.6,86.0 L 197.6,87.0 L 198.0,87.4 L 198.6,88.0 L 198.6,89.0 L 198.6,90.0 L 198.6,91.0 L 198.6,92.0 L 198.6,93.0 L 198.6,94.0 L 198.0,94.6 L 197.6,95.0 L 197.6,96.0 L 197.6,97.0 L 197.0,97.6 L 196.6,98.0 L 196.6,99.0 L 196.0,99.6 L 195.6,100.0 L 195.0,100.6 L 194.6,101.0 L 194.6,102.0 L 194.0,102.6 L 193.6,103.0 L 193.0,103.6 L 192.6,104.0 L 192.0,104.6 L 191.0,104.6 L 190.0,104.6 L 189.6,105.0 L 189.0,105.6 Z" fill="#1F4D3A" opacity="0.85"/>
<path d="M 81.0,137.6 L 80.0,137.6 L 79.0,137.6 L 78.0,137.6 L 77.0,137.6 L 76.0,137.6 L 75.0,137.6 L 74.0,137.6 L 73.0,137.6 L 72.0,137.6 L 71.4,137.0 L 71.0,136.6 L 70.0,136.6 L 69.0,136.6 L 68.4,136.0 L 68.0,135.6 L 67.0,135.6 L 66.4,135.0 L 66.0,134.6 L 65.4,134.0 L 65.0,133.6 L 64.4,133.0 L 65.0,132.4 L 65.4,132.0 L 66.0,131.4 L 66.4,131.0 L 66.4,130.0 L 66.4,129.0 L 66.4,128.0 L 67.0,127.4 L 67.4,127.0 L 68.0,126.4 L 68.4,126.0 L 68.4,125.0 L 69.0,124.4 L 69.4,124.0 L 70.0,123.4 L 70.4,123.0 L 70.4,122.0 L 71.0,121.4 L 71.4,121.0 L 71.4,120.0 L 72.0,119.4 L 72.4,119.0 L 72.4,118.0 L 73.0,117.4 L 73.4,117.0 L 73.4,116.0 L 74.0,115.4 L 74.4,115.0 L 75.0,114.4 L 75.4,114.0 L 75.4,113.0 L 76.0,112.4 L 76.4,112.0 L 76.4,111.0 L 76.4,110.0 L 77.0,109.4 L 78.0,109.4 L 78.4,109.0 L 78.4,108.0 L 79.0,107.4 L 80.0,107.4 L 80.4,107.0 L 80.4,106.0 L 81.0,105.4 L 81.6,106.0 L 82.0,106.4 L 82.4,106.0 L 83.0,105.4 L 84.0,105.4 L 85.0,105.4 L 85.4,105.0 L 86.0,104.4 L 86.4,104.0 L 87.0,103.4 L 88.0,103.4 L 89.0,103.4 L 89.6,104.0 L 90.0,104.4 L 90.6,105.0 L 91.0,105.4 L 91.6,106.0 L 92.0,106.4 L 92.6,107.0 L 92.6,108.0 L 93.0,108.4 L 93.6,109.0 L 93.6,110.0 L 94.0,110.4 L 94.6,111.0 L 94.6,112.0 L 95.0,112.4 L 95.6,113.0 L 95.6,114.0 L 95.6,115.0 L 95.6,116.0 L 95.6,117.0 L 95.6,118.0 L 95.6,119.0 L 95.6,120.0 L 95.6,121.0 L 95.6,122.0 L 95.6,123.0 L 95.6,124.0 L 95.6,125.0 L 95.0,125.6 L 94.6,126.0 L 94.6,127.0 L 94.6,128.0 L 94.0,128.6 L 93.6,129.0 L 93.0,129.6 L 92.6,130.0 L 92.6,131.0 L 92.0,131.6 L 91.6,132.0 L 91.0,132.6 L 90.0,132.6 L 89.6,133.0 L 89.0,133.6 L 88.6,134.0 L 88.0,134.6 L 87.0,134.6 L 86.6,135.0 L 86.0,135.6 L 85.0,135.6 L 84.6,136.0 L 84.0,136.6 L 83.0,136.6 L 82.0,136.6 L 81.6,137.0 L 81.0,137.6 Z" fill="#1F4D3A" opacity="0.85"/>
<path d="M 21.0,168.6 L 20.0,168.6 L 19.0,168.6 L 18.0,168.6 L 17.0,168.6 L 16.0,168.6 L 15.0,168.6 L 14.0,168.6 L 13.0,168.6 L 12.0,168.6 L 11.0,168.6 L 10.4,168.0 L 10.0,167.6 L 9.0,167.6 L 8.0,167.6 L 7.4,167.0 L 7.0,166.6 L 6.0,166.6 L 5.4,166.0 L 5.0,165.6 L 4.4,165.0 L 4.0,164.6 L 3.4,164.0 L 3.4,163.0 L 4.0,162.4 L 4.4,162.0 L 5.0,161.4 L 5.4,161.0 L 5.4,160.0 L 5.4,159.0 L 6.0,158.4 L 6.4,158.0 L 7.0,157.4 L 7.4,157.0 L 7.4,156.0 L 8.0,155.4 L 8.4,155.0 L 9.0,154.4 L 9.4,154.0 L 9.4,153.0 L 9.4,152.0 L 10.0,151.4 L 10.4,151.0 L 10.4,150.0 L 11.0,149.4 L 11.4,149.0 L 12.0,148.4 L 12.4,148.0 L 13.0,147.4 L 13.4,147.0 L 13.4,146.0 L 13.4,145.0 L 14.0,144.4 L 14.4,144.0 L 14.4,143.0 L 14.4,142.0 L 15.0,141.4 L 15.4,141.0 L 16.0,140.4 L 16.4,140.0 L 17.0,139.4 L 17.4,139.0 L 17.4,138.0 L 17.4,137.0 L 18.0,136.4 L 18.4,136.0 L 19.0,135.4 L 19.4,135.0 L 20.0,134.4 L 20.4,134.0 L 21.0,133.4 L 21.4,133.0 L 22.0,132.4 L 22.4,132.0 L 23.0,131.4 L 23.4,131.0 L 23.4,130.0 L 24.0,129.4 L 25.0,129.4 L 26.0,129.4 L 26.6,130.0 L 27.0,130.4 L 28.0,130.4 L 29.0,130.4 L 29.6,131.0 L 30.0,131.4 L 30.6,132.0 L 31.0,132.4 L 31.6,133.0 L 32.0,133.4 L 32.6,134.0 L 32.6,135.0 L 33.0,135.4 L 33.6,136.0 L 34.0,136.4 L 34.6,137.0 L 34.6,138.0 L 35.0,138.4 L 35.6,139.0 L 35.6,140.0 L 35.6,141.0 L 35.6,142.0 L 36.0,142.4 L 36.6,143.0 L 36.6,144.0 L 36.6,145.0 L 37.0,145.4 L 37.6,146.0 L 37.6,147.0 L 37.6,148.0 L 37.6,149.0 L 37.6,150.0 L 37.6,151.0 L 37.6,152.0 L 37.6,153.0 L 37.0,153.6 L 36.6,154.0 L 36.6,155.0 L 36.6,156.0 L 36.6,157.0 L 36.6,158.0 L 36.0,158.6 L 35.6,159.0 L 35.6,160.0 L 35.0,160.6 L 34.6,161.0 L 34.0,161.6 L 33.6,162.0 L 33.6,163.0 L 33.0,163.6 L 32.6,164.0 L 32.0,164.6 L 31.0,164.6 L 30.0,164.6 L 29.6,165.0 L 29.0,165.6 L 28.6,166.0 L 28.0,166.6 L 27.0,166.6 L 26.0,166.6 L 25.6,167.0 L 25.0,167.6 L 24.0,167.6 L 23.0,167.6 L 22.0,167.6 L 21.6,168.0 L 21.0,168.6 Z" fill="#1F4D3A" opacity="0.85"/>
<path d="M 136.0,186.6 L 135.0,186.6 L 134.0,186.6 L 133.0,186.6 L 132.0,186.6 L 131.4,186.0 L 131.0,185.6 L 130.4,185.0 L 130.0,184.6 L 129.4,184.0 L 129.4,183.0 L 130.0,182.4 L 131.0,182.4 L 131.4,182.0 L 131.4,181.0 L 131.4,180.0 L 132.0,179.4 L 132.4,179.0 L 133.0,178.4 L 134.0,178.4 L 134.4,178.0 L 135.0,177.4 L 135.4,177.0 L 135.4,176.0 L 136.0,175.4 L 136.4,175.0 L 137.0,174.4 L 137.4,174.0 L 138.0,173.4 L 138.4,173.0 L 138.4,172.0 L 138.4,171.0 L 139.0,170.4 L 139.4,170.0 L 140.0,169.4 L 140.4,169.0 L 141.0,168.4 L 141.4,168.0 L 141.4,167.0 L 141.4,166.0 L 142.0,165.4 L 142.4,165.0 L 143.0,164.4 L 143.4,164.0 L 143.4,163.0 L 143.4,162.0 L 144.0,161.4 L 145.0,161.4 L 145.4,161.0 L 145.4,160.0 L 145.4,159.0 L 146.0,158.4 L 146.4,158.0 L 147.0,157.4 L 147.4,157.0 L 148.0,156.4 L 148.4,156.0 L 148.0,155.6 L 147.4,155.0 L 148.0,154.4 L 148.4,154.0 L 149.0,153.4 L 149.4,153.0 L 150.0,152.4 L 151.0,152.4 L 151.6,153.0 L 152.0,153.4 L 153.0,153.4 L 153.6,154.0 L 154.0,154.4 L 154.6,155.0 L 154.6,156.0 L 154.6,157.0 L 155.0,157.4 L 155.6,158.0 L 155.6,159.0 L 156.0,159.4 L 156.6,160.0 L 156.6,161.0 L 156.6,162.0 L 156.6,163.0 L 156.6,164.0 L 156.6,165.0 L 156.6,166.0 L 156.6,167.0 L 156.6,168.0 L 156.6,169.0 L 156.0,169.6 L 155.6,170.0 L 155.0,170.6 L 154.6,171.0 L 154.6,172.0 L 154.0,172.6 L 153.6,173.0 L 153.6,174.0 L 153.6,175.0 L 153.0,175.6 L 152.0,175.6 L 151.6,176.0 L 151.6,177.0 L 151.0,177.6 L 150.6,178.0 L 150.0,178.6 L 149.6,179.0 L 149.0,179.6 L 148.0,179.6 L 147.6,180.0 L 147.0,180.6 L 146.6,181.0 L 146.0,181.6 L 145.0,181.6 L 144.6,182.0 L 144.0,182.6 L 143.6,183.0 L 143.0,183.6 L 142.6,184.0 L 142.0,184.6 L 141.0,184.6 L 140.6,185.0 L 140.0,185.6 L 139.0,185.6 L 138.0,185.6 L 137.0,185.6 L 136.6,186.0 L 136.0,186.6 Z" fill="#1F4D3A" opacity="0.85"/>
<path d="M 156.0,174.6 L 155.4,174.0 L 155.0,173.6 L 154.4,173.0 L 155.0,172.4 L 156.0,172.4 L 157.0,172.4 L 157.6,173.0 L 157.0,173.6 L 156.6,174.0 L 156.0,174.6 Z" fill="#1F4D3A" opacity="0.85"/>
<path d="M 81.0,200.6 L 80.0,200.6 L 79.0,200.6 L 78.0,200.6 L 77.0,200.6 L 76.0,200.6 L 75.0,200.6 L 74.0,200.6 L 73.0,200.6 L 72.0,200.6 L 71.4,200.0 L 71.0,199.6 L 70.0,199.6 L 69.4,199.0 L 69.4,198.0 L 69.4,197.0 L 70.0,196.4 L 70.4,196.0 L 70.4,195.0 L 71.0,194.4 L 71.4,194.0 L 71.4,193.0 L 72.0,192.4 L 72.4,192.0 L 73.0,191.4 L 73.4,191.0 L 74.0,190.4 L 74.4,190.0 L 74.4,189.0 L 75.0,188.4 L 75.4,188.0 L 75.4,187.0 L 76.0,186.4 L 76.4,186.0 L 76.4,185.0 L 77.0,184.4 L 77.4,184.0 L 78.0,183.4 L 78.4,183.0 L 79.0,182.4 L 79.4,182.0 L 79.4,181.0 L 80.0,180.4 L 80.4,180.0 L 81.0,179.4 L 81.4,179.0 L 82.0,178.4 L 83.0,178.4 L 84.0,178.4 L 84.6,179.0 L 85.0,179.4 L 85.6,180.0 L 86.0,180.4 L 86.6,181.0 L 87.0,181.4 L 87.6,182.0 L 87.6,183.0 L 88.0,183.4 L 88.6,184.0 L 88.6,185.0 L 88.6,186.0 L 89.0,186.4 L 89.6,187.0 L 89.6,188.0 L 89.6,189.0 L 89.6,190.0 L 89.0,190.6 L 88.6,191.0 L 88.6,192.0 L 88.6,193.0 L 88.0,193.6 L 87.6,194.0 L 87.6,195.0 L 87.0,195.6 L 86.6,196.0 L 86.0,196.6 L 85.6,197.0 L 85.0,197.6 L 84.6,198.0 L 84.0,198.6 L 83.6,199.0 L 83.0,199.6 L 82.0,199.6 L 81.6,200.0 L 81.0,200.6 Z" fill="#1F4D3A" opacity="0.85"/>
<path d="M 67.0,16.4 L 66.0,16.4 L 65.0,16.4 L 64.6,16.0 L 64.6,15.0 L 65.0,14.6 L 65.6,14.0 L 65.6,13.0 L 66.0,12.6 L 66.6,12.0 L 67.0,11.6 L 67.6,11.0 L 67.6,10.0 L 67.6,9.0 L 68.0,8.6 L 68.6,8.0 L 68.6,7.0 L 69.0,6.6 L 69.6,6.0 L 70.0,5.6 L 70.6,5.0 L 71.0,4.6 L 71.6,4.0 L 71.6,3.0 L 72.0,2.6 L 73.0,2.6 L 73.4,3.0 L 74.0,3.6 L 74.4,4.0 L 74.4,5.0 L 75.0,5.6 L 75.4,6.0 L 75.4,7.0 L 75.4,8.0 L 75.4,9.0 L 75.0,9.4 L 74.4,10.0 L 74.4,11.0 L 74.0,11.4 L 73.4,12.0 L 73.0,12.4 L 72.4,13.0 L 72.0,13.4 L 71.4,14.0 L 71.0,14.4 L 70.0,14.4 L 69.4,15.0 L 69.0,15.4 L 68.0,15.4 L 67.4,16.0 L 67.0,16.4 Z" fill="#1F4D3A" opacity="0.85"/>
<path d="M 140.0,49.4 L 139.0,49.4 L 138.0,49.4 L 137.0,49.4 L 136.0,49.4 L 135.0,49.4 L 134.0,49.4 L 133.0,49.4 L 132.6,49.0 L 132.0,48.4 L 131.0,48.4 L 130.0,48.4 L 129.6,48.0 L 129.0,47.4 L 128.0,47.4 L 127.6,47.0 L 127.0,46.4 L 126.0,46.4 L 125.6,46.0 L 125.6,45.0 L 125.0,44.4 L 124.6,44.0 L 125.0,43.6 L 125.6,43.0 L 125.0,42.4 L 124.6,42.0 L 124.6,41.0 L 125.0,40.6 L 125.6,40.0 L 126.0,39.6 L 126.6,39.0 L 126.6,38.0 L 126.6,37.0 L 127.0,36.6 L 127.6,36.0 L 127.6,35.0 L 127.6,34.0 L 128.0,33.6 L 128.6,33.0 L 129.0,32.6 L 129.6,32.0 L 130.0,31.6 L 130.6,31.0 L 130.6,30.0 L 131.0,29.6 L 131.6,29.0 L 131.6,28.0 L 132.0,27.6 L 132.6,27.0 L 132.0,26.4 L 131.6,26.0 L 132.0,25.6 L 132.6,25.0 L 132.6,24.0 L 133.0,23.6 L 134.0,23.6 L 134.6,23.0 L 134.6,22.0 L 135.0,21.6 L 135.6,21.0 L 136.0,20.6 L 136.6,20.0 L 136.6,19.0 L 137.0,18.6 L 137.6,18.0 L 138.0,17.6 L 138.6,17.0 L 138.6,16.0 L 139.0,15.6 L 139.6,15.0 L 139.6,14.0 L 139.6,13.0 L 140.0,12.6 L 141.0,12.6 L 141.6,12.0 L 141.6,11.0 L 142.0,10.6 L 143.0,10.6 L 144.0,10.6 L 145.0,10.6 L 145.4,11.0 L 146.0,11.6 L 147.0,11.6 L 147.4,12.0 L 148.0,12.6 L 148.4,13.0 L 149.0,13.6 L 149.4,14.0 L 150.0,14.6 L 150.4,15.0 L 151.0,15.6 L 151.4,16.0 L 151.4,17.0 L 152.0,17.6 L 152.4,18.0 L 153.0,18.6 L 153.4,19.0 L 153.4,20.0 L 154.0,20.6 L 154.4,21.0 L 154.4,22.0 L 154.4,23.0 L 155.0,23.6 L 155.4,24.0 L 155.4,25.0 L 155.4,26.0 L 155.4,27.0 L 156.0,27.6 L 156.4,28.0 L 156.4,29.0 L 156.4,30.0 L 156.4,31.0 L 156.4,32.0 L 156.4,33.0 L 156.4,34.0 L 156.4,35.0 L 156.0,35.4 L 155.4,36.0 L 155.4,37.0 L 155.4,38.0 L 155.4,39.0 L 155.0,39.4 L 154.4,40.0 L 154.4,41.0 L 154.0,41.4 L 153.4,42.0 L 153.4,43.0 L 153.0,43.4 L 152.4,44.0 L 152.0,44.4 L 151.4,45.0 L 151.0,45.4 L 150.4,46.0 L 150.0,46.4 L 149.0,46.4 L 148.0,46.4 L 147.4,47.0 L 147.0,47.4 L 146.0,47.4 L 145.0,47.4 L 144.4,48.0 L 144.0,48.4 L 143.0,48.4 L 142.0,48.4 L 141.0,48.4 L 140.4,49.0 L 140.0,49.4 Z" fill="#1F4D3A" opacity="0.85"/>
<path d="M 25.0,79.4 L 24.0,79.4 L 23.0,79.4 L 22.0,79.4 L 21.0,79.4 L 20.0,79.4 L 19.0,79.4 L 18.0,79.4 L 17.6,79.0 L 17.6,78.0 L 17.0,77.4 L 16.0,77.4 L 15.6,77.0 L 16.0,76.6 L 16.6,76.0 L 17.0,75.6 L 17.6,75.0 L 18.0,74.6 L 18.6,74.0 L 19.0,73.6 L 19.6,73.0 L 20.0,72.6 L 20.6,72.0 L 21.0,71.6 L 21.6,71.0 L 22.0,70.6 L 22.6,70.0 L 23.0,69.6 L 23.6,69.0 L 24.0,68.6 L 24.6,68.0 L 25.0,67.6 L 25.6,67.0 L 25.6,66.0 L 26.0,65.6 L 27.0,65.6 L 27.6,65.0 L 27.6,64.0 L 28.0,63.6 L 28.6,63.0 L 28.0,62.4 L 27.6,62.0 L 28.0,61.6 L 28.6,61.0 L 28.6,60.0 L 29.0,59.6 L 29.6,59.0 L 30.0,58.6 L 30.6,58.0 L 30.6,57.0 L 31.0,56.6 L 31.6,56.0 L 31.6,55.0 L 31.6,54.0 L 32.0,53.6 L 32.6,53.0 L 32.6,52.0 L 33.0,51.6 L 33.6,51.0 L 34.0,50.6 L 34.6,50.0 L 34.6,49.0 L 35.0,48.6 L 35.6,48.0 L 35.6,47.0 L 36.0,46.6 L 36.6,46.0 L 37.0,45.6 L 37.6,45.0 L 38.0,44.6 L 39.0,44.6 L 40.0,44.6 L 40.4,45.0 L 41.0,45.6 L 41.4,46.0 L 41.4,47.0 L 42.0,47.6 L 42.4,48.0 L 42.4,49.0 L 43.0,49.6 L 43.4,50.0 L 43.4,51.0 L 44.0,51.6 L 44.4,52.0 L 44.0,52.4 L 43.4,53.0 L 43.4,54.0 L 44.0,54.6 L 44.4,55.0 L 44.4,56.0 L 44.4,57.0 L 44.0,57.4 L 43.4,58.0 L 43.4,59.0 L 43.4,60.0 L 43.4,61.0 L 43.0,61.4 L 42.4,62.0 L 42.4,63.0 L 42.4,64.0 L 42.4,65.0 L 42.0,65.4 L 41.0,65.4 L 40.4,66.0 L 40.4,67.0 L 40.0,67.4 L 39.4,68.0 L 39.4,69.0 L 39.4,70.0 L 39.0,70.4 L 38.4,71.0 L 38.0,71.4 L 37.0,71.4 L 36.4,72.0 L 36.4,73.0 L 36.0,73.4 L 35.0,73.4 L 34.4,74.0 L 34.0,74.4 L 33.4,75.0 L 33.0,75.4 L 32.0,75.4 L 31.4,76.0 L 31.0,76.4 L 30.0,76.4 L 29.4,77.0 L 29.0,77.4 L 28.4,78.0 L 28.0,78.4 L 27.0,78.4 L 26.0,78.4 L 25.4,79.0 L 25.0,79.4 Z" fill="#1F4D3A" opacity="0.85"/>
<path d="M 41.0,77.4 L 40.0,77.4 L 39.6,77.0 L 40.0,76.6 L 40.6,76.0 L 41.0,75.6 L 41.6,75.0 L 42.0,74.6 L 42.6,74.0 L 42.6,73.0 L 43.0,72.6 L 43.6,72.0 L 44.0,71.6 L 44.6,71.0 L 44.6,70.0 L 45.0,69.6 L 45.6,69.0 L 45.6,68.0 L 45.6,67.0 L 46.0,66.6 L 46.6,66.0 L 46.6,65.0 L 47.0,64.6 L 47.4,65.0 L 47.4,66.0 L 47.4,67.0 L 47.4,68.0 L 47.4,69.0 L 47.0,69.4 L 46.4,70.0 L 46.4,71.0 L 46.4,72.0 L 46.0,72.4 L 45.4,73.0 L 45.0,73.4 L 44.0,73.4 L 43.4,74.0 L 43.4,75.0 L 43.0,75.4 L 42.4,76.0 L 42.0,76.4 L 41.4,77.0 L 41.0,77.4 Z" fill="#1F4D3A" opacity="0.85"/>
<path d="M 132.0,112.4 L 131.0,112.4 L 130.6,112.0 L 131.0,111.6 L 131.6,111.0 L 132.0,110.6 L 132.6,110.0 L 133.0,109.6 L 133.6,109.0 L 134.0,108.6 L 134.6,108.0 L 134.6,107.0 L 135.0,106.6 L 135.6,106.0 L 136.0,105.6 L 136.6,105.0 L 136.6,104.0 L 137.0,103.6 L 137.6,103.0 L 138.0,102.6 L 138.6,102.0 L 138.6,101.0 L 138.0,100.4 L 137.4,101.0 L 137.0,101.4 L 136.4,102.0 L 136.0,102.4 L 135.4,103.0 L 135.0,103.4 L 134.0,103.4 L 133.4,104.0 L 133.0,104.4 L 132.4,105.0 L 132.0,105.4 L 131.0,105.4 L 130.4,106.0 L 130.0,106.4 L 129.4,107.0 L 129.0,107.4 L 128.4,108.0 L 128.0,108.4 L 127.6,108.0 L 127.0,107.4 L 126.0,107.4 L 125.0,107.4 L 124.0,107.4 L 123.4,108.0 L 123.0,108.4 L 122.0,108.4 L 121.0,108.4 L 120.0,108.4 L 119.4,109.0 L 119.0,109.4 L 118.0,109.4 L 117.6,109.0 L 117.0,108.4 L 116.0,108.4 L 115.4,109.0 L 116.0,109.6 L 116.4,110.0 L 116.0,110.4 L 115.0,110.4 L 114.6,110.0 L 114.0,109.4 L 113.6,109.0 L 114.0,108.6 L 114.6,108.0 L 114.0,107.4 L 113.6,107.0 L 114.0,106.6 L 115.0,106.6 L 115.6,106.0 L 116.0,105.6 L 116.6,105.0 L 116.6,104.0 L 116.6,103.0 L 116.6,102.0 L 117.0,101.6 L 117.6,101.0 L 118.0,100.6 L 118.6,100.0 L 118.6,99.0 L 119.0,98.6 L 119.6,98.0 L 119.6,97.0 L 120.0,96.6 L 120.6,96.0 L 120.6,95.0 L 121.0,94.6 L 121.6,94.0 L 121.6,93.0 L 122.0,92.6 L 122.6,92.0 L 122.6,91.0 L 122.6,90.0 L 123.0,89.6 L 123.6,89.0 L 124.0,88.6 L 124.6,88.0 L 125.0,87.6 L 125.6,87.0 L 125.6,86.0 L 125.6,85.0 L 126.0,84.6 L 126.6,84.0 L 126.6,83.0 L 127.0,82.6 L 127.6,82.0 L 127.6,81.0 L 128.0,80.6 L 128.6,80.0 L 129.0,79.6 L 129.6,79.0 L 130.0,78.6 L 131.0,78.6 L 131.6,78.0 L 131.6,77.0 L 131.0,76.4 L 130.6,76.0 L 131.0,75.6 L 131.6,75.0 L 132.0,74.6 L 132.6,74.0 L 133.0,73.6 L 133.4,74.0 L 134.0,74.6 L 135.0,74.6 L 135.4,75.0 L 136.0,75.6 L 136.4,76.0 L 136.4,77.0 L 137.0,77.6 L 137.4,78.0 L 138.0,78.6 L 138.4,79.0 L 138.4,80.0 L 139.0,80.6 L 139.4,81.0 L 140.0,81.6 L 140.4,82.0 L 140.4,83.0 L 140.4,84.0 L 140.4,85.0 L 141.0,85.6 L 141.4,86.0 L 141.4,87.0 L 141.4,88.0 L 141.4,89.0 L 141.4,90.0 L 141.0,90.4 L 140.4,91.0 L 140.4,92.0 L 141.0,92.6 L 141.4,93.0 L 141.0,93.4 L 140.4,94.0 L 140.4,95.0 L 140.4,96.0 L 141.0,96.6 L 142.0,96.6 L 142.4,97.0 L 142.0,97.4 L 141.4,98.0 L 141.4,99.0 L 141.4,100.0 L 141.4,101.0 L 141.0,101.4 L 140.4,102.0 L 140.4,103.0 L 140.4,104.0 L 140.4,105.0 L 140.0,105.4 L 139.4,106.0 L 139.0,106.4 L 138.4,107.0 L 138.0,107.4 L 137.4,108.0 L 137.0,108.4 L 136.4,109.0 L 136.0,109.4 L 135.0,109.4 L 134.4,110.0 L 134.0,110.4 L 133.4,111.0 L 133.0,111.4 L 132.4,112.0 L 132.0,112.4 Z" fill="#1F4D3A" opacity="0.85"/>
<path d="M 189.0,105.4 L 188.0,105.4 L 187.0,105.4 L 186.0,105.4 L 185.0,105.4 L 184.0,105.4 L 183.0,105.4 L 182.0,105.4 L 181.0,105.4 L 180.0,105.4 L 179.0,105.4 L 178.0,105.4 L 177.0,105.4 L 176.6,105.0 L 176.0,104.4 L 175.0,104.4 L 174.6,104.0 L 174.0,103.4 L 173.6,103.0 L 173.0,102.4 L 172.6,102.0 L 172.6,101.0 L 172.6,100.0 L 173.0,99.6 L 173.6,99.0 L 173.6,98.0 L 174.0,97.6 L 174.6,97.0 L 175.0,96.6 L 175.6,96.0 L 176.0,95.6 L 176.6,95.0 L 177.0,94.6 L 177.6,94.0 L 177.6,93.0 L 178.0,92.6 L 178.6,92.0 L 179.0,91.6 L 179.6,91.0 L 180.0,90.6 L 180.6,90.0 L 180.6,89.0 L 181.0,88.6 L 181.6,88.0 L 181.6,87.0 L 182.0,86.6 L 182.6,86.0 L 182.6,85.0 L 183.0,84.6 L 183.6,84.0 L 184.0,83.6 L 184.6,83.0 L 184.6,82.0 L 185.0,81.6 L 186.0,81.6 L 186.6,81.0 L 186.6,80.0 L 187.0,79.6 L 187.6,79.0 L 188.0,78.6 L 188.6,78.0 L 189.0,77.6 L 190.0,77.6 L 191.0,77.6 L 191.4,78.0 L 192.0,78.6 L 193.0,78.6 L 193.4,79.0 L 194.0,79.6 L 194.4,80.0 L 194.4,81.0 L 195.0,81.6 L 195.4,82.0 L 196.0,82.6 L 196.4,83.0 L 196.4,84.0 L 197.0,84.6 L 197.4,85.0 L 197.4,86.0 L 197.4,87.0 L 198.0,87.6 L 198.4,88.0 L 198.4,89.0 L 198.4,90.0 L 198.4,91.0 L 198.4,92.0 L 198.4,93.0 L 198.4,94.0 L 198.0,94.4 L 197.4,95.0 L 197.4,96.0 L 197.4,97.0 L 197.0,97.4 L 196.4,98.0 L 196.4,99.0 L 196.0,99.4 L 195.4,100.0 L 195.0,100.4 L 194.4,101.0 L 194.4,102.0 L 194.0,102.4 L 193.4,103.0 L 193.0,103.4 L 192.4,104.0 L 192.0,104.4 L 191.0,104.4 L 190.0,104.4 L 189.4,105.0 L 189.0,105.4 Z" fill="#1F4D3A" opacity="0.85"/>
<path d="M 81.0,137.4 L 80.0,137.4 L 79.0,137.4 L 78.0,137.4 L 77.0,137.4 L 76.0,137.4 L 75.0,137.4 L 74.0,137.4 L 73.0,137.4 L 72.0,137.4 L 71.6,137.0 L 71.0,136.4 L 70.0,136.4 L 69.0,136.4 L 68.6,136.0 L 68.0,135.4 L 67.0,135.4 L 66.6,135.0 L 66.0,134.4 L 65.6,134.0 L 65.0,133.4 L 64.6,133.0 L 65.0,132.6 L 65.6,132.0 L 66.0,131.6 L 66.6,131.0 L 66.6,130.0 L 66.6,129.0 L 66.6,128.0 L 67.0,127.6 L 67.6,127.0 L 68.0,126.6 L 68.6,126.0 L 68.6,125.0 L 69.0,124.6 L 69.6,124.0 L 70.0,123.6 L 70.6,123.0 L 70.6,122.0 L 71.0,121.6 L 71.6,121.0 L 71.6,120.0 L 72.0,119.6 L 72.6,119.0 L 72.6,118.0 L 73.0,117.6 L 73.6,117.0 L 73.6,116.0 L 74.0,115.6 L 74.6,115.0 L 75.0,114.6 L 75.6,114.0 L 75.6,113.0 L 76.0,112.6 L 76.6,112.0 L 76.6,111.0 L 76.6,110.0 L 77.0,109.6 L 78.0,109.6 L 78.6,109.0 L 78.6,108.0 L 79.0,107.6 L 80.0,107.6 L 80.6,107.0 L 80.6,106.0 L 81.0,105.6 L 81.4,106.0 L 82.0,106.6 L 82.6,106.0 L 83.0,105.6 L 84.0,105.6 L 85.0,105.6 L 85.6,105.0 L 86.0,104.6 L 86.6,104.0 L 87.0,103.6 L 88.0,103.6 L 89.0,103.6 L 89.4,104.0 L 90.0,104.6 L 90.4,105.0 L 91.0,105.6 L 91.4,106.0 L 92.0,106.6 L 92.4,107.0 L 92.4,108.0 L 93.0,108.6 L 93.4,109.0 L 93.4,110.0 L 94.0,110.6 L 94.4,111.0 L 94.4,112.0 L 95.0,112.6 L 95.4,113.0 L 95.4,114.0 L 95.4,115.0 L 95.4,116.0 L 95.4,117.0 L 95.4,118.0 L 95.4,119.0 L 95.4,120.0 L 95.4,121.0 L 95.4,122.0 L 95.4,123.0 L 95.4,124.0 L 95.4,125.0 L 95.0,125.4 L 94.4,126.0 L 94.4,127.0 L 94.4,128.0 L 94.0,128.4 L 93.4,129.0 L 93.0,129.4 L 92.4,130.0 L 92.4,131.0 L 92.0,131.4 L 91.4,132.0 L 91.0,132.4 L 90.0,132.4 L 89.4,133.0 L 89.0,133.4 L 88.4,134.0 L 88.0,134.4 L 87.0,134.4 L 86.4,135.0 L 86.0,135.4 L 85.0,135.4 L 84.4,136.0 L 84.0,136.4 L 83.0,136.4 L 82.0,136.4 L 81.4,137.0 L 81.0,137.4 Z" fill="#1F4D3A" opacity="0.85"/>
<path d="M 21.0,168.4 L 20.0,168.4 L 19.0,168.4 L 18.0,168.4 L 17.0,168.4 L 16.0,168.4 L 15.0,168.4 L 14.0,168.4 L 13.0,168.4 L 12.0,168.4 L 11.0,168.4 L 10.6,168.0 L 10.0,167.4 L 9.0,167.4 L 8.0,167.4 L 7.6,167.0 L 7.0,166.4 L 6.0,166.4 L 5.6,166.0 L 5.0,165.4 L 4.6,165.0 L 4.0,164.4 L 3.6,164.0 L 3.6,163.0 L 4.0,162.6 L 4.6,162.0 L 5.0,161.6 L 5.6,161.0 L 5.6,160.0 L 5.6,159.0 L 6.0,158.6 L 6.6,158.0 L 7.0,157.6 L 7.6,157.0 L 7.6,156.0 L 8.0,155.6 L 8.6,155.0 L 9.0,154.6 L 9.6,154.0 L 9.6,153.0 L 9.6,152.0 L 10.0,151.6 L 10.6,151.0 L 10.6,150.0 L 11.0,149.6 L 11.6,149.0 L 12.0,148.6 L 12.6,148.0 L 13.0,147.6 L 13.6,147.0 L 13.6,146.0 L 13.6,145.0 L 14.0,144.6 L 14.6,144.0 L 14.6,143.0 L 14.6,142.0 L 15.0,141.6 L 15.6,141.0 L 16.0,140.6 L 16.6,140.0 L 17.0,139.6 L 17.6,139.0 L 17.6,138.0 L 17.6,137.0 L 18.0,136.6 L 18.6,136.0 L 19.0,135.6 L 19.6,135.0 L 20.0,134.6 L 20.6,134.0 L 21.0,133.6 L 21.6,133.0 L 22.0,132.6 L 22.6,132.0 L 23.0,131.6 L 23.6,131.0 L 23.6,130.0 L 24.0,129.6 L 25.0,129.6 L 26.0,129.6 L 26.4,130.0 L 27.0,130.6 L 28.0,130.6 L 29.0,130.6 L 29.4,131.0 L 30.0,131.6 L 30.4,132.0 L 31.0,132.6 L 31.4,133.0 L 32.0,133.6 L 32.4,134.0 L 32.4,135.0 L 33.0,135.6 L 33.4,136.0 L 34.0,136.6 L 34.4,137.0 L 34.4,138.0 L 35.0,138.6 L 35.4,139.0 L 35.4,140.0 L 35.4,141.0 L 35.4,142.0 L 36.0,142.6 L 36.4,143.0 L 36.4,144.0 L 36.4,145.0 L 37.0,145.6 L 37.4,146.0 L 37.4,147.0 L 37.4,148.0 L 37.4,149.0 L 37.4,150.0 L 37.4,151.0 L 37.4,152.0 L 37.4,153.0 L 37.0,153.4 L 36.4,154.0 L 36.4,155.0 L 36.4,156.0 L 36.4,157.0 L 36.4,158.0 L 36.0,158.4 L 35.4,159.0 L 35.4,160.0 L 35.0,160.4 L 34.4,161.0 L 34.0,161.4 L 33.4,162.0 L 33.4,163.0 L 33.0,163.4 L 32.4,164.0 L 32.0,164.4 L 31.0,164.4 L 30.0,164.4 L 29.4,165.0 L 29.0,165.4 L 28.4,166.0 L 28.0,166.4 L 27.0,166.4 L 26.0,166.4 L 25.4,167.0 L 25.0,167.4 L 24.0,167.4 L 23.0,167.4 L 22.0,167.4 L 21.4,168.0 L 21.0,168.4 Z" fill="#1F4D3A" opacity="0.85"/>
</svg>