<?xml version="1.0" encoding="UTF-8"?>
<svg xmlns="http://www.w3.org/2000/svg" viewBox="0 0 400 400" width="400" height="400" shape-rendering="crispEdges">
  <rect width="400" height="400" fill="white"/>
  <g fill="black">
    <rect x="0.0" y="0.0" width="10.8" height="10.8"/>
<rect x="10.8" y="0.0" width="10.8" height="10.8"/>
<rect x="21.6" y="0.0" width="10.8" height="10.8"/>
<rect x="32.4" y="0.0" width="10.8" height="10.8"/>
<rect x="43.2" y="0.0" width="10.8" height="10.8"/>
<rect x="54.1" y="0.0" width="10.8" height="10.8"/>
<rect x="64.9" y="0.0" width="10.8" height="10.8"/>
<rect x="97.3" y="0.0" width="10.8" height="10.8"/>
<rect x="108.1" y="0.0" width="10.8" height="10.8"/>
<rect x="118.9" y="0.0" width="10.8" height="10.8"/>
<rect x="183.8" y="0.0" width="10.8" height="10.8"/>
<rect x="281.1" y="0.0" width="10.8" height="10.8"/>
<rect x="291.9" y="0.0" width="10.8" height="10.8"/>
<rect x="324.3" y="0.0" width="10.8" height="10.8"/>
<rect x="335.1" y="0.0" width="10.8" height="10.8"/>
<rect x="345.9" y="0.0" width="10.8" height="10.8"/>
<rect x="356.8" y="0.0" width="10.8" height="10.8"/>
<rect x="367.6" y="0.0" width="10.8" height="10.8"/>
<rect x="378.4" y="0.0" width="10.8" height="10.8"/>
<rect x="389.2" y="0.0" width="10.8" height="10.8"/>
<rect x="0.0" y="10.8" width="10.8" height="10.8"/>
<rect x="64.9" y="10.8" width="10.8" height="10.8"/>
<rect x="108.1" y="10.8" width="10.8" height="10.8"/>
<rect x="151.4" y="10.8" width="10.8" height="10.8"/>
<rect x="173.0" y="10.8" width="10.8" height="10.8"/>
<rect x="183.8" y="10.8" width="10.8" height="10.8"/>
<rect x="216.2" y="10.8" width="10.8" height="10.8"/>
<rect x="227.0" y="10.8" width="10.8" height="10.8"/>
<rect x="248.6" y="10.8" width="10.8" height="10.8"/>
<rect x="259.5" y="10.8" width="10.8" height="10.8"/>
<rect x="281.1" y="10.8" width="10.8" height="10.8"/>
<rect x="291.9" y="10.8" width="10.8" height="10.8"/>
<rect x="302.7" y="10.8" width="10.8" height="10.8"/>
<rect x="324.3" y="10.8" width="10.8" height="10.8"/>
<rect x="389.2" y="10.8" width="10.8" height="10.8"/>
<rect x="0.0" y="21.6" width="10.8" height="10.8"/>
<rect x="21.6" y="21.6" width="10.8" height="10.8"/>
<rect x="32.4" y="21.6" width="10.8" height="10.8"/>
<rect x="43.2" y="21.6" width="10.8" height="10.8"/>
<rect x="64.9" y="21.6" width="10.8" height="10.8"/>
<rect x="86.5" y="21.6" width="10.8" height="10.8"/>
<rect x="108.1" y="21.6" width="10.8" height="10.8"/>
<rect x="140.5" y="21.6" width="10.8" height="10.8"/>
<rect x="162.2" y="21.6" width="10.8" height="10.8"/>
<rect x="194.6" y="21.6" width="10.8" height="10.8"/>
<rect x="227.0" y="21.6" width="10.8" height="10.8"/>
<rect x="248.6" y="21.6" width="10.8" height="10.8"/>
<rect x="291.9" y="21.6" width="10.8" height="10.8"/>
<rect x="324.3" y="21.6" width="10.8" height="10.8"/>
<rect x="345.9" y="21.6" width="10.8" height="10.8"/>
<rect x="356.8" y="21.6" width="10.8" height="10.8"/>
<rect x="367.6" y="21.6" width="10.8" height="10.8"/>
<rect x="389.2" y="21.6" width="10.8" height="10.8"/>
<rect x="0.0" y="32.4" width="10.8" height="10.8"/>
<rect x="21.6" y="32.4" width="10.8" height="10.8"/>
<rect x="32.4" y="32.4" width="10.8" height="10.8"/>
<rect x="43.2" y="32.4" width="10.8" height="10.8"/>
<rect x="64.9" y="32.4" width="10.8" height="10.8"/>
<rect x="86.5" y="32.4" width="10.8" height="10.8"/>
<rect x="108.1" y="32.4" width="10.8" height="10.8"/>
<rect x="140.5" y="32.4" width="10.8" height="10.8"/>
<rect x="151.4" y="32.4" width="10.8" height="10.8"/>
<rect x="173.0" y="32.4" width="10.8" height="10.8"/>
<rect x="248.6" y="32.4" width="10.8" height="10.8"/>
<rect x="270.3" y="32.4" width="10.8" height="10.8"/>
<rect x="291.9" y="32.4" width="10.8" height="10.8"/>
<rect x="302.7" y="32.4" width="10.8" height="10.8"/>
<rect x="324.3" y="32.4" width="10.8" height="10.8"/>
<rect x="345.9" y="32.4" width="10.8" height="10.8"/>
<rect x="356.8" y="32.4" width="10.8" height="10.8"/>
<rect x="367.6" y="32.4" width="10.8" height="10.8"/>
<rect x="389.2" y="32.4" width="10.8" height="10.8"/>
<rect x="0.0" y="43.2" width="10.8" height="10.8"/>
<rect x="21.6" y="43.2" width="10.8" height="10.8"/>
<rect x="32.4" y="43.2" width="10.8" height="10.8"/>
<rect x="43.2" y="43.2" width="10.8" height="10.8"/>
<rect x="64.9" y="43.2" width="10.8" height="10.8"/>
<rect x="86.5" y="43.2" width="10.8" height="10.8"/>
<rect x="118.9" y="43.2" width="10.8" height="10.8"/>
<rect x="129.7" y="43.2" width="10.8" height="10.8"/>
<rect x="151.4" y="43.2" width="10.8" height="10.8"/>
<rect x="183.8" y="43.2" width="10.8" height="10.8"/>
<rect x="205.4" y="43.2" width="10.8" height="10.8"/>
<rect x="216.2" y="43.2" width="10.8" height="10.8"/>
<rect x="227.0" y="43.2" width="10.8" height="10.8"/>
<rect x="237.8" y="43.2" width="10.8" height="10.8"/>
<rect x="270.3" y="43.2" width="10.8" height="10.8"/>
<rect x="302.7" y="43.2" width="10.8" height="10.8"/>
<rect x="324.3" y="43.2" width="10.8" height="10.8"/>
<rect x="345.9" y="43.2" width="10.8" height="10.8"/>
<rect x="356.8" y="43.2" width="10.8" height="10.8"/>
<rect x="367.6" y="43.2" width="10.8" height="10.8"/>
<rect x="389.2" y="43.2" width="10.8" height="10.8"/>
<rect x="0.0" y="54.1" width="10.8" height="10.8"/>
<rect x="64.9" y="54.1" width="10.8" height="10.8"/>
<rect x="86.5" y="54.1" width="10.8" height="10.8"/>
<rect x="108.1" y="54.1" width="10.8" height="10.8"/>
<rect x="129.7" y="54.1" width="10.8" height="10.8"/>
<rect x="140.5" y="54.1" width="10.8" height="10.8"/>
<rect x="151.4" y="54.1" width="10.8" height="10.8"/>
<rect x="162.2" y="54.1" width="10.8" height="10.8"/>
<rect x="173.0" y="54.1" width="10.8" height="10.8"/>
<rect x="183.8" y="54.1" width="10.8" height="10.8"/>
<rect x="216.2" y="54.1" width="10.8" height="10.8"/>
<rect x="227.0" y="54.1" width="10.8" height="10.8"/>
<rect x="259.5" y="54.1" width="10.8" height="10.8"/>
<rect x="270.3" y="54.1" width="10.8" height="10.8"/>
<rect x="281.1" y="54.1" width="10.8" height="10.8"/>
<rect x="291.9" y="54.1" width="10.8" height="10.8"/>
<rect x="302.7" y="54.1" width="10.8" height="10.8"/>
<rect x="324.3" y="54.1" width="10.8" height="10.8"/>
<rect x="389.2" y="54.1" width="10.8" height="10.8"/>
<rect x="0.0" y="64.9" width="10.8" height="10.8"/>
<rect x="10.8" y="64.9" width="10.8" height="10.8"/>
<rect x="21.6" y="64.9" width="10.8" height="10.8"/>
<rect x="32.4" y="64.9" width="10.8" height="10.8"/>
<rect x="43.2" y="64.9" width="10.8" height="10.8"/>
<rect x="54.1" y="64.9" width="10.8" height="10.8"/>
<rect x="64.9" y="64.9" width="10.8" height="10.8"/>
<rect x="86.5" y="64.9" width="10.8" height="10.8"/>
<rect x="108.1" y="64.9" width="10.8" height="10.8"/>
<rect x="129.7" y="64.9" width="10.8" height="10.8"/>
<rect x="151.4" y="64.9" width="10.8" height="10.8"/>
<rect x="173.0" y="64.9" width="10.8" height="10.8"/>
<rect x="194.6" y="64.9" width="10.8" height="10.8"/>
<rect x="216.2" y="64.9" width="10.8" height="10.8"/>
<rect x="237.8" y="64.9" width="10.8" height="10.8"/>
<rect x="259.5" y="64.9" width="10.8" height="10.8"/>
<rect x="281.1" y="64.9" width="10.8" height="10.8"/>
<rect x="302.7" y="64.9" width="10.8" height="10.8"/>
<rect x="324.3" y="64.9" width="10.8" height="10.8"/>
<rect x="335.1" y="64.9" width="10.8" height="10.8"/>
<rect x="345.9" y="64.9" width="10.8" height="10.8"/>
<rect x="356.8" y="64.9" width="10.8" height="10.8"/>
<rect x="367.6" y="64.9" width="10.8" height="10.8"/>
<rect x="378.4" y="64.9" width="10.8" height="10.8"/>
<rect x="389.2" y="64.9" width="10.8" height="10.8"/>
<rect x="86.5" y="75.7" width="10.8" height="10.8"/>
<rect x="97.3" y="75.7" width="10.8" height="10.8"/>
<rect x="129.7" y="75.7" width="10.8" height="10.8"/>
<rect x="183.8" y="75.7" width="10.8" height="10.8"/>
<rect x="194.6" y="75.7" width="10.8" height="10.8"/>
<rect x="227.0" y="75.7" width="10.8" height="10.8"/>
<rect x="237.8" y="75.7" width="10.8" height="10.8"/>
<rect x="270.3" y="75.7" width="10.8" height="10.8"/>
<rect x="291.9" y="75.7" width="10.8" height="10.8"/>
<rect x="0.0" y="86.5" width="10.8" height="10.8"/>
<rect x="21.6" y="86.5" width="10.8" height="10.8"/>
<rect x="32.4" y="86.5" width="10.8" height="10.8"/>
<rect x="43.2" y="86.5" width="10.8" height="10.8"/>
<rect x="54.1" y="86.5" width="10.8" height="10.8"/>
<rect x="64.9" y="86.5" width="10.8" height="10.8"/>
<rect x="108.1" y="86.5" width="10.8" height="10.8"/>
<rect x="118.9" y="86.5" width="10.8" height="10.8"/>
<rect x="129.7" y="86.5" width="10.8" height="10.8"/>
<rect x="140.5" y="86.5" width="10.8" height="10.8"/>
<rect x="151.4" y="86.5" width="10.8" height="10.8"/>
<rect x="162.2" y="86.5" width="10.8" height="10.8"/>
<rect x="173.0" y="86.5" width="10.8" height="10.8"/>
<rect x="205.4" y="86.5" width="10.8" height="10.8"/>
<rect x="227.0" y="86.5" width="10.8" height="10.8"/>
<rect x="248.6" y="86.5" width="10.8" height="10.8"/>
<rect x="281.1" y="86.5" width="10.8" height="10.8"/>
<rect x="291.9" y="86.5" width="10.8" height="10.8"/>
<rect x="324.3" y="86.5" width="10.8" height="10.8"/>
<rect x="335.1" y="86.5" width="10.8" height="10.8"/>
<rect x="345.9" y="86.5" width="10.8" height="10.8"/>
<rect x="356.8" y="86.5" width="10.8" height="10.8"/>
<rect x="367.6" y="86.5" width="10.8" height="10.8"/>
<rect x="10.8" y="97.3" width="10.8" height="10.8"/>
<rect x="21.6" y="97.3" width="10.8" height="10.8"/>
<rect x="43.2" y="97.3" width="10.8" height="10.8"/>
<rect x="97.3" y="97.3" width="10.8" height="10.8"/>
<rect x="140.5" y="97.3" width="10.8" height="10.8"/>
<rect x="151.4" y="97.3" width="10.8" height="10.8"/>
<rect x="162.2" y="97.3" width="10.8" height="10.8"/>
<rect x="194.6" y="97.3" width="10.8" height="10.8"/>
<rect x="216.2" y="97.3" width="10.8" height="10.8"/>
<rect x="227.0" y="97.3" width="10.8" height="10.8"/>
<rect x="237.8" y="97.3" width="10.8" height="10.8"/>
<rect x="259.5" y="97.3" width="10.8" height="10.8"/>
<rect x="270.3" y="97.3" width="10.8" height="10.8"/>
<rect x="291.9" y="97.3" width="10.8" height="10.8"/>
<rect x="302.7" y="97.3" width="10.8" height="10.8"/>
<rect x="324.3" y="97.3" width="10.8" height="10.8"/>
<rect x="335.1" y="97.3" width="10.8" height="10.8"/>
<rect x="345.9" y="97.3" width="10.8" height="10.8"/>
<rect x="367.6" y="97.3" width="10.8" height="10.8"/>
<rect x="378.4" y="97.3" width="10.8" height="10.8"/>
<rect x="32.4" y="108.1" width="10.8" height="10.8"/>
<rect x="54.1" y="108.1" width="10.8" height="10.8"/>
<rect x="64.9" y="108.1" width="10.8" height="10.8"/>
<rect x="108.1" y="108.1" width="10.8" height="10.8"/>
<rect x="118.9" y="108.1" width="10.8" height="10.8"/>
<rect x="129.7" y="108.1" width="10.8" height="10.8"/>
<rect x="140.5" y="108.1" width="10.8" height="10.8"/>
<rect x="151.4" y="108.1" width="10.8" height="10.8"/>
<rect x="162.2" y="108.1" width="10.8" height="10.8"/>
<rect x="173.0" y="108.1" width="10.8" height="10.8"/>
<rect x="194.6" y="108.1" width="10.8" height="10.8"/>
<rect x="205.4" y="108.1" width="10.8" height="10.8"/>
<rect x="270.3" y="108.1" width="10.8" height="10.8"/>
<rect x="281.1" y="108.1" width="10.8" height="10.8"/>
<rect x="313.5" y="108.1" width="10.8" height="10.8"/>
<rect x="324.3" y="108.1" width="10.8" height="10.8"/>
<rect x="345.9" y="108.1" width="10.8" height="10.8"/>
<rect x="367.6" y="108.1" width="10.8" height="10.8"/>
<rect x="378.4" y="108.1" width="10.8" height="10.8"/>
<rect x="389.2" y="108.1" width="10.8" height="10.8"/>
<rect x="21.6" y="118.9" width="10.8" height="10.8"/>
<rect x="32.4" y="118.9" width="10.8" height="10.8"/>
<rect x="43.2" y="118.9" width="10.8" height="10.8"/>
<rect x="75.7" y="118.9" width="10.8" height="10.8"/>
<rect x="97.3" y="118.9" width="10.8" height="10.8"/>
<rect x="118.9" y="118.9" width="10.8" height="10.8"/>
<rect x="129.7" y="118.9" width="10.8" height="10.8"/>
<rect x="140.5" y="118.9" width="10.8" height="10.8"/>
<rect x="162.2" y="118.9" width="10.8" height="10.8"/>
<rect x="194.6" y="118.9" width="10.8" height="10.8"/>
<rect x="205.4" y="118.9" width="10.8" height="10.8"/>
<rect x="216.2" y="118.9" width="10.8" height="10.8"/>
<rect x="227.0" y="118.9" width="10.8" height="10.8"/>
<rect x="259.5" y="118.9" width="10.8" height="10.8"/>
<rect x="302.7" y="118.9" width="10.8" height="10.8"/>
<rect x="313.5" y="118.9" width="10.8" height="10.8"/>
<rect x="324.3" y="118.9" width="10.8" height="10.8"/>
<rect x="335.1" y="118.9" width="10.8" height="10.8"/>
<rect x="345.9" y="118.9" width="10.8" height="10.8"/>
<rect x="389.2" y="118.9" width="10.8" height="10.8"/>
<rect x="0.0" y="129.7" width="10.8" height="10.8"/>
<rect x="21.6" y="129.7" width="10.8" height="10.8"/>
<rect x="43.2" y="129.7" width="10.8" height="10.8"/>
<rect x="64.9" y="129.7" width="10.8" height="10.8"/>
<rect x="86.5" y="129.7" width="10.8" height="10.8"/>
<rect x="97.3" y="129.7" width="10.8" height="10.8"/>
<rect x="140.5" y="129.7" width="10.8" height="10.8"/>
<rect x="162.2" y="129.7" width="10.8" height="10.8"/>
<rect x="183.8" y="129.7" width="10.8" height="10.8"/>
<rect x="205.4" y="129.7" width="10.8" height="10.8"/>
<rect x="216.2" y="129.7" width="10.8" height="10.8"/>
<rect x="237.8" y="129.7" width="10.8" height="10.8"/>
<rect x="259.5" y="129.7" width="10.8" height="10.8"/>
<rect x="270.3" y="129.7" width="10.8" height="10.8"/>
<rect x="281.1" y="129.7" width="10.8" height="10.8"/>
<rect x="324.3" y="129.7" width="10.8" height="10.8"/>
<rect x="335.1" y="129.7" width="10.8" height="10.8"/>
<rect x="345.9" y="129.7" width="10.8" height="10.8"/>
<rect x="367.6" y="129.7" width="10.8" height="10.8"/>
<rect x="378.4" y="129.7" width="10.8" height="10.8"/>
<rect x="389.2" y="129.7" width="10.8" height="10.8"/>
<rect x="10.8" y="140.5" width="10.8" height="10.8"/>
<rect x="21.6" y="140.5" width="10.8" height="10.8"/>
<rect x="43.2" y="140.5" width="10.8" height="10.8"/>
<rect x="118.9" y="140.5" width="10.8" height="10.8"/>
<rect x="129.7" y="140.5" width="10.8" height="10.8"/>
<rect x="302.7" y="140.5" width="10.8" height="10.8"/>
<rect x="335.1" y="140.5" width="10.8" height="10.8"/>
<rect x="378.4" y="140.5" width="10.8" height="10.8"/>
<rect x="21.6" y="151.4" width="10.8" height="10.8"/>
<rect x="64.9" y="151.4" width="10.8" height="10.8"/>
<rect x="118.9" y="151.4" width="10.8" height="10.8"/>
<rect x="129.7" y="151.4" width="10.8" height="10.8"/>
<rect x="151.4" y="151.4" width="10.8" height="10.8"/>
<rect x="162.2" y="151.4" width="10.8" height="10.8"/>
<rect x="173.0" y="151.4" width="10.8" height="10.8"/>
<rect x="183.8" y="151.4" width="10.8" height="10.8"/>
<rect x="194.6" y="151.4" width="10.8" height="10.8"/>
<rect x="205.4" y="151.4" width="10.8" height="10.8"/>
<rect x="216.2" y="151.4" width="10.8" height="10.8"/>
<rect x="227.0" y="151.4" width="10.8" height="10.8"/>
<rect x="237.8" y="151.4" width="10.8" height="10.8"/>
<rect x="259.5" y="151.4" width="10.8" height="10.8"/>
<rect x="291.9" y="151.4" width="10.8" height="10.8"/>
<rect x="324.3" y="151.4" width="10.8" height="10.8"/>
<rect x="335.1" y="151.4" width="10.8" height="10.8"/>
<rect x="345.9" y="151.4" width="10.8" height="10.8"/>
<rect x="356.8" y="151.4" width="10.8" height="10.8"/>
<rect x="389.2" y="151.4" width="10.8" height="10.8"/>
<rect x="10.8" y="162.2" width="10.8" height="10.8"/>
<rect x="54.1" y="162.2" width="10.8" height="10.8"/>
<rect x="75.7" y="162.2" width="10.8" height="10.8"/>
<rect x="97.3" y="162.2" width="10.8" height="10.8"/>
<rect x="151.4" y="162.2" width="10.8" height="10.8"/>
<rect x="162.2" y="162.2" width="10.8" height="10.8"/>
<rect x="173.0" y="162.2" width="10.8" height="10.8"/>
<rect x="183.8" y="162.2" width="10.8" height="10.8"/>
<rect x="194.6" y="162.2" width="10.8" height="10.8"/>
<rect x="205.4" y="162.2" width="10.8" height="10.8"/>
<rect x="216.2" y="162.2" width="10.8" height="10.8"/>
<rect x="227.0" y="162.2" width="10.8" height="10.8"/>
<rect x="237.8" y="162.2" width="10.8" height="10.8"/>
<rect x="281.1" y="162.2" width="10.8" height="10.8"/>
<rect x="291.9" y="162.2" width="10.8" height="10.8"/>
<rect x="313.5" y="162.2" width="10.8" height="10.8"/>
<rect x="324.3" y="162.2" width="10.8" height="10.8"/>
<rect x="335.1" y="162.2" width="10.8" height="10.8"/>
<rect x="345.9" y="162.2" width="10.8" height="10.8"/>
<rect x="378.4" y="162.2" width="10.8" height="10.8"/>
<rect x="0.0" y="173.0" width="10.8" height="10.8"/>
<rect x="10.8" y="173.0" width="10.8" height="10.8"/>
<rect x="54.1" y="173.0" width="10.8" height="10.8"/>
<rect x="64.9" y="173.0" width="10.8" height="10.8"/>
<rect x="75.7" y="173.0" width="10.8" height="10.8"/>
<rect x="86.5" y="173.0" width="10.8" height="10.8"/>
<rect x="108.1" y="173.0" width="10.8" height="10.8"/>
<rect x="151.4" y="173.0" width="10.8" height="10.8"/>
<rect x="162.2" y="173.0" width="10.8" height="10.8"/>
<rect x="205.4" y="173.0" width="10.8" height="10.8"/>
<rect x="216.2" y="173.0" width="10.8" height="10.8"/>
<rect x="227.0" y="173.0" width="10.8" height="10.8"/>
<rect x="237.8" y="173.0" width="10.8" height="10.8"/>
<rect x="259.5" y="173.0" width="10.8" height="10.8"/>
<rect x="302.7" y="173.0" width="10.8" height="10.8"/>
<rect x="324.3" y="173.0" width="10.8" height="10.8"/>
<rect x="335.1" y="173.0" width="10.8" height="10.8"/>
<rect x="367.6" y="173.0" width="10.8" height="10.8"/>
<rect x="0.0" y="183.8" width="10.8" height="10.8"/>
<rect x="10.8" y="183.8" width="10.8" height="10.8"/>
<rect x="32.4" y="183.8" width="10.8" height="10.8"/>
<rect x="43.2" y="183.8" width="10.8" height="10.8"/>
<rect x="54.1" y="183.8" width="10.8" height="10.8"/>
<rect x="86.5" y="183.8" width="10.8" height="10.8"/>
<rect x="108.1" y="183.8" width="10.8" height="10.8"/>
<rect x="151.4" y="183.8" width="10.8" height="10.8"/>
<rect x="205.4" y="183.8" width="10.8" height="10.8"/>
<rect x="216.2" y="183.8" width="10.8" height="10.8"/>
<rect x="227.0" y="183.8" width="10.8" height="10.8"/>
<rect x="237.8" y="183.8" width="10.8" height="10.8"/>
<rect x="281.1" y="183.8" width="10.8" height="10.8"/>
<rect x="291.9" y="183.8" width="10.8" height="10.8"/>
<rect x="313.5" y="183.8" width="10.8" height="10.8"/>
<rect x="324.3" y="183.8" width="10.8" height="10.8"/>
<rect x="356.8" y="183.8" width="10.8" height="10.8"/>
<rect x="378.4" y="183.8" width="10.8" height="10.8"/>
<rect x="32.4" y="194.6" width="10.8" height="10.8"/>
<rect x="43.2" y="194.6" width="10.8" height="10.8"/>
<rect x="64.9" y="194.6" width="10.8" height="10.8"/>
<rect x="75.7" y="194.6" width="10.8" height="10.8"/>
<rect x="86.5" y="194.6" width="10.8" height="10.8"/>
<rect x="108.1" y="194.6" width="10.8" height="10.8"/>
<rect x="118.9" y="194.6" width="10.8" height="10.8"/>
<rect x="129.7" y="194.6" width="10.8" height="10.8"/>
<rect x="151.4" y="194.6" width="10.8" height="10.8"/>
<rect x="227.0" y="194.6" width="10.8" height="10.8"/>
<rect x="237.8" y="194.6" width="10.8" height="10.8"/>
<rect x="259.5" y="194.6" width="10.8" height="10.8"/>
<rect x="270.3" y="194.6" width="10.8" height="10.8"/>
<rect x="291.9" y="194.6" width="10.8" height="10.8"/>
<rect x="302.7" y="194.6" width="10.8" height="10.8"/>
<rect x="313.5" y="194.6" width="10.8" height="10.8"/>
<rect x="335.1" y="194.6" width="10.8" height="10.8"/>
<rect x="367.6" y="194.6" width="10.8" height="10.8"/>
<rect x="378.4" y="194.6" width="10.8" height="10.8"/>
<rect x="389.2" y="194.6" width="10.8" height="10.8"/>
<rect x="10.8" y="205.4" width="10.8" height="10.8"/>
<rect x="32.4" y="205.4" width="10.8" height="10.8"/>
<rect x="97.3" y="205.4" width="10.8" height="10.8"/>
<rect x="118.9" y="205.4" width="10.8" height="10.8"/>
<rect x="151.4" y="205.4" width="10.8" height="10.8"/>
<rect x="162.2" y="205.4" width="10.8" height="10.8"/>
<rect x="227.0" y="205.4" width="10.8" height="10.8"/>
<rect x="237.8" y="205.4" width="10.8" height="10.8"/>
<rect x="281.1" y="205.4" width="10.8" height="10.8"/>
<rect x="291.9" y="205.4" width="10.8" height="10.8"/>
<rect x="356.8" y="205.4" width="10.8" height="10.8"/>
<rect x="389.2" y="205.4" width="10.8" height="10.8"/>
<rect x="32.4" y="216.2" width="10.8" height="10.8"/>
<rect x="43.2" y="216.2" width="10.8" height="10.8"/>
<rect x="54.1" y="216.2" width="10.8" height="10.8"/>
<rect x="64.9" y="216.2" width="10.8" height="10.8"/>
<rect x="75.7" y="216.2" width="10.8" height="10.8"/>
<rect x="86.5" y="216.2" width="10.8" height="10.8"/>
<rect x="97.3" y="216.2" width="10.8" height="10.8"/>
<rect x="108.1" y="216.2" width="10.8" height="10.8"/>
<rect x="151.4" y="216.2" width="10.8" height="10.8"/>
<rect x="162.2" y="216.2" width="10.8" height="10.8"/>
<rect x="173.0" y="216.2" width="10.8" height="10.8"/>
<rect x="183.8" y="216.2" width="10.8" height="10.8"/>
<rect x="194.6" y="216.2" width="10.8" height="10.8"/>
<rect x="227.0" y="216.2" width="10.8" height="10.8"/>
<rect x="237.8" y="216.2" width="10.8" height="10.8"/>
<rect x="259.5" y="216.2" width="10.8" height="10.8"/>
<rect x="270.3" y="216.2" width="10.8" height="10.8"/>
<rect x="281.1" y="216.2" width="10.8" height="10.8"/>
<rect x="291.9" y="216.2" width="10.8" height="10.8"/>
<rect x="313.5" y="216.2" width="10.8" height="10.8"/>
<rect x="324.3" y="216.2" width="10.8" height="10.8"/>
<rect x="345.9" y="216.2" width="10.8" height="10.8"/>
<rect x="367.6" y="216.2" width="10.8" height="10.8"/>
<rect x="10.8" y="227.0" width="10.8" height="10.8"/>
<rect x="54.1" y="227.0" width="10.8" height="10.8"/>
<rect x="75.7" y="227.0" width="10.8" height="10.8"/>
<rect x="86.5" y="227.0" width="10.8" height="10.8"/>
<rect x="97.3" y="227.0" width="10.8" height="10.8"/>
<rect x="108.1" y="227.0" width="10.8" height="10.8"/>
<rect x="151.4" y="227.0" width="10.8" height="10.8"/>
<rect x="162.2" y="227.0" width="10.8" height="10.8"/>
<rect x="173.0" y="227.0" width="10.8" height="10.8"/>
<rect x="183.8" y="227.0" width="10.8" height="10.8"/>
<rect x="194.6" y="227.0" width="10.8" height="10.8"/>
<rect x="205.4" y="227.0" width="10.8" height="10.8"/>
<rect x="216.2" y="227.0" width="10.8" height="10.8"/>
<rect x="227.0" y="227.0" width="10.8" height="10.8"/>
<rect x="237.8" y="227.0" width="10.8" height="10.8"/>
<rect x="270.3" y="227.0" width="10.8" height="10.8"/>
<rect x="302.7" y="227.0" width="10.8" height="10.8"/>
<rect x="313.5" y="227.0" width="10.8" height="10.8"/>
<rect x="356.8" y="227.0" width="10.8" height="10.8"/>
<rect x="0.0" y="237.8" width="10.8" height="10.8"/>
<rect x="10.8" y="237.8" width="10.8" height="10.8"/>
<rect x="21.6" y="237.8" width="10.8" height="10.8"/>
<rect x="43.2" y="237.8" width="10.8" height="10.8"/>
<rect x="64.9" y="237.8" width="10.8" height="10.8"/>
<rect x="86.5" y="237.8" width="10.8" height="10.8"/>
<rect x="118.9" y="237.8" width="10.8" height="10.8"/>
<rect x="151.4" y="237.8" width="10.8" height="10.8"/>
<rect x="162.2" y="237.8" width="10.8" height="10.8"/>
<rect x="173.0" y="237.8" width="10.8" height="10.8"/>
<rect x="183.8" y="237.8" width="10.8" height="10.8"/>
<rect x="194.6" y="237.8" width="10.8" height="10.8"/>
<rect x="205.4" y="237.8" width="10.8" height="10.8"/>
<rect x="216.2" y="237.8" width="10.8" height="10.8"/>
<rect x="227.0" y="237.8" width="10.8" height="10.8"/>
<rect x="237.8" y="237.8" width="10.8" height="10.8"/>
<rect x="270.3" y="237.8" width="10.8" height="10.8"/>
<rect x="281.1" y="237.8" width="10.8" height="10.8"/>
<rect x="291.9" y="237.8" width="10.8" height="10.8"/>
<rect x="302.7" y="237.8" width="10.8" height="10.8"/>
<rect x="313.5" y="237.8" width="10.8" height="10.8"/>
<rect x="335.1" y="237.8" width="10.8" height="10.8"/>
<rect x="345.9" y="237.8" width="10.8" height="10.8"/>
<rect x="356.8" y="237.8" width="10.8" height="10.8"/>
<rect x="378.4" y="237.8" width="10.8" height="10.8"/>
<rect x="389.2" y="237.8" width="10.8" height="10.8"/>
<rect x="0.0" y="248.6" width="10.8" height="10.8"/>
<rect x="21.6" y="248.6" width="10.8" height="10.8"/>
<rect x="32.4" y="248.6" width="10.8" height="10.8"/>
<rect x="75.7" y="248.6" width="10.8" height="10.8"/>
<rect x="108.1" y="248.6" width="10.8" height="10.8"/>
<rect x="129.7" y="248.6" width="10.8" height="10.8"/>
<rect x="259.5" y="248.6" width="10.8" height="10.8"/>
<rect x="270.3" y="248.6" width="10.8" height="10.8"/>
<rect x="335.1" y="248.6" width="10.8" height="10.8"/>
<rect x="345.9" y="248.6" width="10.8" height="10.8"/>
<rect x="378.4" y="248.6" width="10.8" height="10.8"/>
<rect x="32.4" y="259.5" width="10.8" height="10.8"/>
<rect x="43.2" y="259.5" width="10.8" height="10.8"/>
<rect x="64.9" y="259.5" width="10.8" height="10.8"/>
<rect x="75.7" y="259.5" width="10.8" height="10.8"/>
<rect x="86.5" y="259.5" width="10.8" height="10.8"/>
<rect x="97.3" y="259.5" width="10.8" height="10.8"/>
<rect x="108.1" y="259.5" width="10.8" height="10.8"/>
<rect x="118.9" y="259.5" width="10.8" height="10.8"/>
<rect x="151.4" y="259.5" width="10.8" height="10.8"/>
<rect x="162.2" y="259.5" width="10.8" height="10.8"/>
<rect x="173.0" y="259.5" width="10.8" height="10.8"/>
<rect x="227.0" y="259.5" width="10.8" height="10.8"/>
<rect x="248.6" y="259.5" width="10.8" height="10.8"/>
<rect x="281.1" y="259.5" width="10.8" height="10.8"/>
<rect x="291.9" y="259.5" width="10.8" height="10.8"/>
<rect x="313.5" y="259.5" width="10.8" height="10.8"/>
<rect x="367.6" y="259.5" width="10.8" height="10.8"/>
<rect x="389.2" y="259.5" width="10.8" height="10.8"/>
<rect x="0.0" y="270.3" width="10.8" height="10.8"/>
<rect x="10.8" y="270.3" width="10.8" height="10.8"/>
<rect x="32.4" y="270.3" width="10.8" height="10.8"/>
<rect x="43.2" y="270.3" width="10.8" height="10.8"/>
<rect x="75.7" y="270.3" width="10.8" height="10.8"/>
<rect x="86.5" y="270.3" width="10.8" height="10.8"/>
<rect x="151.4" y="270.3" width="10.8" height="10.8"/>
<rect x="162.2" y="270.3" width="10.8" height="10.8"/>
<rect x="183.8" y="270.3" width="10.8" height="10.8"/>
<rect x="194.6" y="270.3" width="10.8" height="10.8"/>
<rect x="216.2" y="270.3" width="10.8" height="10.8"/>
<rect x="227.0" y="270.3" width="10.8" height="10.8"/>
<rect x="237.8" y="270.3" width="10.8" height="10.8"/>
<rect x="259.5" y="270.3" width="10.8" height="10.8"/>
<rect x="270.3" y="270.3" width="10.8" height="10.8"/>
<rect x="291.9" y="270.3" width="10.8" height="10.8"/>
<rect x="302.7" y="270.3" width="10.8" height="10.8"/>
<rect x="324.3" y="270.3" width="10.8" height="10.8"/>
<rect x="335.1" y="270.3" width="10.8" height="10.8"/>
<rect x="345.9" y="270.3" width="10.8" height="10.8"/>
<rect x="367.6" y="270.3" width="10.8" height="10.8"/>
<rect x="0.0" y="281.1" width="10.8" height="10.8"/>
<rect x="21.6" y="281.1" width="10.8" height="10.8"/>
<rect x="64.9" y="281.1" width="10.8" height="10.8"/>
<rect x="97.3" y="281.1" width="10.8" height="10.8"/>
<rect x="108.1" y="281.1" width="10.8" height="10.8"/>
<rect x="118.9" y="281.1" width="10.8" height="10.8"/>
<rect x="129.7" y="281.1" width="10.8" height="10.8"/>
<rect x="140.5" y="281.1" width="10.8" height="10.8"/>
<rect x="151.4" y="281.1" width="10.8" height="10.8"/>
<rect x="162.2" y="281.1" width="10.8" height="10.8"/>
<rect x="173.0" y="281.1" width="10.8" height="10.8"/>
<rect x="194.6" y="281.1" width="10.8" height="10.8"/>
<rect x="205.4" y="281.1" width="10.8" height="10.8"/>
<rect x="270.3" y="281.1" width="10.8" height="10.8"/>
<rect x="281.1" y="281.1" width="10.8" height="10.8"/>
<rect x="313.5" y="281.1" width="10.8" height="10.8"/>
<rect x="324.3" y="281.1" width="10.8" height="10.8"/>
<rect x="345.9" y="281.1" width="10.8" height="10.8"/>
<rect x="378.4" y="281.1" width="10.8" height="10.8"/>
<rect x="389.2" y="281.1" width="10.8" height="10.8"/>
<rect x="0.0" y="291.9" width="10.8" height="10.8"/>
<rect x="43.2" y="291.9" width="10.8" height="10.8"/>
<rect x="162.2" y="291.9" width="10.8" height="10.8"/>
<rect x="205.4" y="291.9" width="10.8" height="10.8"/>
<rect x="216.2" y="291.9" width="10.8" height="10.8"/>
<rect x="227.0" y="291.9" width="10.8" height="10.8"/>
<rect x="237.8" y="291.9" width="10.8" height="10.8"/>
<rect x="259.5" y="291.9" width="10.8" height="10.8"/>
<rect x="281.1" y="291.9" width="10.8" height="10.8"/>
<rect x="302.7" y="291.9" width="10.8" height="10.8"/>
<rect x="313.5" y="291.9" width="10.8" height="10.8"/>
<rect x="335.1" y="291.9" width="10.8" height="10.8"/>
<rect x="345.9" y="291.9" width="10.8" height="10.8"/>
<rect x="356.8" y="291.9" width="10.8" height="10.8"/>
<rect x="389.2" y="291.9" width="10.8" height="10.8"/>
<rect x="0.0" y="302.7" width="10.8" height="10.8"/>
<rect x="21.6" y="302.7" width="10.8" height="10.8"/>
<rect x="43.2" y="302.7" width="10.8" height="10.8"/>
<rect x="54.1" y="302.7" width="10.8" height="10.8"/>
<rect x="64.9" y="302.7" width="10.8" height="10.8"/>
<rect x="75.7" y="302.7" width="10.8" height="10.8"/>
<rect x="97.3" y="302.7" width="10.8" height="10.8"/>
<rect x="129.7" y="302.7" width="10.8" height="10.8"/>
<rect x="162.2" y="302.7" width="10.8" height="10.8"/>
<rect x="183.8" y="302.7" width="10.8" height="10.8"/>
<rect x="205.4" y="302.7" width="10.8" height="10.8"/>
<rect x="227.0" y="302.7" width="10.8" height="10.8"/>
<rect x="237.8" y="302.7" width="10.8" height="10.8"/>
<rect x="259.5" y="302.7" width="10.8" height="10.8"/>
<rect x="270.3" y="302.7" width="10.8" height="10.8"/>
<rect x="281.1" y="302.7" width="10.8" height="10.8"/>
<rect x="302.7" y="302.7" width="10.8" height="10.8"/>
<rect x="313.5" y="302.7" width="10.8" height="10.8"/>
<rect x="324.3" y="302.7" width="10.8" height="10.8"/>
<rect x="335.1" y="302.7" width="10.8" height="10.8"/>
<rect x="345.9" y="302.7" width="10.8" height="10.8"/>
<rect x="367.6" y="302.7" width="10.8" height="10.8"/>
<rect x="389.2" y="302.7" width="10.8" height="10.8"/>
<rect x="86.5" y="313.5" width="10.8" height="10.8"/>
<rect x="97.3" y="313.5" width="10.8" height="10.8"/>
<rect x="108.1" y="313.5" width="10.8" height="10.8"/>
<rect x="118.9" y="313.5" width="10.8" height="10.8"/>
<rect x="140.5" y="313.5" width="10.8" height="10.8"/>
<rect x="173.0" y="313.5" width="10.8" height="10.8"/>
<rect x="194.6" y="313.5" width="10.8" height="10.8"/>
<rect x="205.4" y="313.5" width="10.8" height="10.8"/>
<rect x="216.2" y="313.5" width="10.8" height="10.8"/>
<rect x="248.6" y="313.5" width="10.8" height="10.8"/>
<rect x="291.9" y="313.5" width="10.8" height="10.8"/>
<rect x="302.7" y="313.5" width="10.8" height="10.8"/>
<rect x="345.9" y="313.5" width="10.8" height="10.8"/>
<rect x="356.8" y="313.5" width="10.8" height="10.8"/>
<rect x="378.4" y="313.5" width="10.8" height="10.8"/>
<rect x="0.0" y="324.3" width="10.8" height="10.8"/>
<rect x="10.8" y="324.3" width="10.8" height="10.8"/>
<rect x="21.6" y="324.3" width="10.8" height="10.8"/>
<rect x="32.4" y="324.3" width="10.8" height="10.8"/>
<rect x="43.2" y="324.3" width="10.8" height="10.8"/>
<rect x="54.1" y="324.3" width="10.8" height="10.8"/>
<rect x="64.9" y="324.3" width="10.8" height="10.8"/>
<rect x="97.3" y="324.3" width="10.8" height="10.8"/>
<rect x="108.1" y="324.3" width="10.8" height="10.8"/>
<rect x="140.5" y="324.3" width="10.8" height="10.8"/>
<rect x="151.4" y="324.3" width="10.8" height="10.8"/>
<rect x="162.2" y="324.3" width="10.8" height="10.8"/>
<rect x="194.6" y="324.3" width="10.8" height="10.8"/>
<rect x="216.2" y="324.3" width="10.8" height="10.8"/>
<rect x="237.8" y="324.3" width="10.8" height="10.8"/>
<rect x="302.7" y="324.3" width="10.8" height="10.8"/>
<rect x="324.3" y="324.3" width="10.8" height="10.8"/>
<rect x="345.9" y="324.3" width="10.8" height="10.8"/>
<rect x="367.6" y="324.3" width="10.8" height="10.8"/>
<rect x="389.2" y="324.3" width="10.8" height="10.8"/>
<rect x="0.0" y="335.1" width="10.8" height="10.8"/>
<rect x="64.9" y="335.1" width="10.8" height="10.8"/>
<rect x="86.5" y="335.1" width="10.8" height="10.8"/>
<rect x="97.3" y="335.1" width="10.8" height="10.8"/>
<rect x="118.9" y="335.1" width="10.8" height="10.8"/>
<rect x="129.7" y="335.1" width="10.8" height="10.8"/>
<rect x="140.5" y="335.1" width="10.8" height="10.8"/>
<rect x="151.4" y="335.1" width="10.8" height="10.8"/>
<rect x="205.4" y="335.1" width="10.8" height="10.8"/>
<rect x="248.6" y="335.1" width="10.8" height="10.8"/>
<rect x="281.1" y="335.1" width="10.8" height="10.8"/>
<rect x="302.7" y="335.1" width="10.8" height="10.8"/>
<rect x="345.9" y="335.1" width="10.8" height="10.8"/>
<rect x="356.8" y="335.1" width="10.8" height="10.8"/>
<rect x="378.4" y="335.1" width="10.8" height="10.8"/>
<rect x="389.2" y="335.1" width="10.8" height="10.8"/>
<rect x="0.0" y="345.9" width="10.8" height="10.8"/>
<rect x="21.6" y="345.9" width="10.8" height="10.8"/>
<rect x="32.4" y="345.9" width="10.8" height="10.8"/>
<rect x="43.2" y="345.9" width="10.8" height="10.8"/>
<rect x="64.9" y="345.9" width="10.8" height="10.8"/>
<rect x="86.5" y="345.9" width="10.8" height="10.8"/>
<rect x="118.9" y="345.9" width="10.8" height="10.8"/>
<rect x="151.4" y="345.9" width="10.8" height="10.8"/>
<rect x="162.2" y="345.9" width="10.8" height="10.8"/>
<rect x="194.6" y="345.9" width="10.8" height="10.8"/>
<rect x="216.2" y="345.9" width="10.8" height="10.8"/>
<rect x="227.0" y="345.9" width="10.8" height="10.8"/>
<rect x="237.8" y="345.9" width="10.8" height="10.8"/>
<rect x="248.6" y="345.9" width="10.8" height="10.8"/>
<rect x="259.5" y="345.9" width="10.8" height="10.8"/>
<rect x="291.9" y="345.9" width="10.8" height="10.8"/>
<rect x="302.7" y="345.9" width="10.8" height="10.8"/>
<rect x="313.5" y="345.9" width="10.8" height="10.8"/>
<rect x="324.3" y="345.9" width="10.8" height="10.8"/>
<rect x="335.1" y="345.9" width="10.8" height="10.8"/>
<rect x="345.9" y="345.9" width="10.8" height="10.8"/>
<rect x="367.6" y="345.9" width="10.8" height="10.8"/>
<rect x="378.4" y="345.9" width="10.8" height="10.8"/>
<rect x="0.0" y="356.8" width="10.8" height="10.8"/>
<rect x="21.6" y="356.8" width="10.8" height="10.8"/>
<rect x="32.4" y="356.8" width="10.8" height="10.8"/>
<rect x="43.2" y="356.8" width="10.8" height="10.8"/>
<rect x="64.9" y="356.8" width="10.8" height="10.8"/>
<rect x="86.5" y="356.8" width="10.8" height="10.8"/>
<rect x="108.1" y="356.8" width="10.8" height="10.8"/>
<rect x="129.7" y="356.8" width="10.8" height="10.8"/>
<rect x="151.4" y="356.8" width="10.8" height="10.8"/>
<rect x="162.2" y="356.8" width="10.8" height="10.8"/>
<rect x="173.0" y="356.8" width="10.8" height="10.8"/>
<rect x="227.0" y="356.8" width="10.8" height="10.8"/>
<rect x="270.3" y="356.8" width="10.8" height="10.8"/>
<rect x="281.1" y="356.8" width="10.8" height="10.8"/>
<rect x="313.5" y="356.8" width="10.8" height="10.8"/>
<rect x="324.3" y="356.8" width="10.8" height="10.8"/>
<rect x="345.9" y="356.8" width="10.8" height="10.8"/>
<rect x="356.8" y="356.8" width="10.8" height="10.8"/>
<rect x="378.4" y="356.8" width="10.8" height="10.8"/>
<rect x="0.0" y="367.6" width="10.8" height="10.8"/>
<rect x="21.6" y="367.6" width="10.8" height="10.8"/>
<rect x="32.4" y="367.6" width="10.8" height="10.8"/>
<rect x="43.2" y="367.6" width="10.8" height="10.8"/>
<rect x="64.9" y="367.6" width="10.8" height="10.8"/>
<rect x="86.5" y="367.6" width="10.8" height="10.8"/>
<rect x="140.5" y="367.6" width="10.8" height="10.8"/>
<rect x="151.4" y="367.6" width="10.8" height="10.8"/>
<rect x="183.8" y="367.6" width="10.8" height="10.8"/>
<rect x="194.6" y="367.6" width="10.8" height="10.8"/>
<rect x="216.2" y="367.6" width="10.8" height="10.8"/>
<rect x="227.0" y="367.6" width="10.8" height="10.8"/>
<rect x="237.8" y="367.6" width="10.8" height="10.8"/>
<rect x="248.6" y="367.6" width="10.8" height="10.8"/>
<rect x="259.5" y="367.6" width="10.8" height="10.8"/>
<rect x="281.1" y="367.6" width="10.8" height="10.8"/>
<rect x="356.8" y="367.6" width="10.8" height="10.8"/>
<rect x="367.6" y="367.6" width="10.8" height="10.8"/>
<rect x="389.2" y="367.6" width="10.8" height="10.8"/>
<rect x="0.0" y="378.4" width="10.8" height="10.8"/>
<rect x="64.9" y="378.4" width="10.8" height="10.8"/>
<rect x="118.9" y="378.4" width="10.8" height="10.8"/>
<rect x="129.7" y="378.4" width="10.8" height="10.8"/>
<rect x="173.0" y="378.4" width="10.8" height="10.8"/>
<rect x="194.6" y="378.4" width="10.8" height="10.8"/>
<rect x="227.0" y="378.4" width="10.8" height="10.8"/>
<rect x="248.6" y="378.4" width="10.8" height="10.8"/>
<rect x="281.1" y="378.4" width="10.8" height="10.8"/>
<rect x="324.3" y="378.4" width="10.8" height="10.8"/>
<rect x="345.9" y="378.4" width="10.8" height="10.8"/>
<rect x="356.8" y="378.4" width="10.8" height="10.8"/>
<rect x="389.2" y="378.4" width="10.8" height="10.8"/>
<rect x="0.0" y="389.2" width="10.8" height="10.8"/>
<rect x="10.8" y="389.2" width="10.8" height="10.8"/>
<rect x="21.6" y="389.2" width="10.8" height="10.8"/>
<rect x="32.4" y="389.2" width="10.8" height="10.8"/>
<rect x="43.2" y="389.2" width="10.8" height="10.8"/>
<rect x="54.1" y="389.2" width="10.8" height="10.8"/>
<rect x="64.9" y="389.2" width="10.8" height="10.8"/>
<rect x="86.5" y="389.2" width="10.8" height="10.8"/>
<rect x="108.1" y="389.2" width="10.8" height="10.8"/>
<rect x="118.9" y="389.2" width="10.8" height="10.8"/>
<rect x="151.4" y="389.2" width="10.8" height="10.8"/>
<rect x="216.2" y="389.2" width="10.8" height="10.8"/>
<rect x="237.8" y="389.2" width="10.8" height="10.8"/>
<rect x="248.6" y="389.2" width="10.8" height="10.8"/>
<rect x="259.5" y="389.2" width="10.8" height="10.8"/>
<rect x="270.3" y="389.2" width="10.8" height="10.8"/>
<rect x="291.9" y="389.2" width="10.8" height="10.8"/>
<rect x="313.5" y="389.2" width="10.8" height="10.8"/>
<rect x="324.3" y="389.2" width="10.8" height="10.8"/>
<rect x="345.9" y="389.2" width="10.8" height="10.8"/>
<rect x="356.8" y="389.2" width="10.8" height="10.8"/>
<rect x="378.4" y="389.2" width="10.8" height="10.8"/>
<rect x="389.2" y="389.2" width="10.8" height="10.8"/>
  </g>
</svg>